<svg width="193" height="252" viewBox="0 0 193 252" fill="none" xmlns="http://www.w3.org/2000/svg">
  <path d="M70.6495 208.509C63.0645 219.897 53.57 229.401 44.2547 234.929C34.9394 240.456 26.5663 241.556 20.9775 237.985C15.3887 234.414 13.0419 226.466 14.4534 215.888C15.8649 205.311 20.9191 192.971 28.5042 181.583C44.2995 157.865 171.164 13.613 171.164 13.613C171.164 13.613 86.4457 184.794 70.6495 208.509Z" fill="#CC444E"/>
  <path fill-rule="evenodd" clip-rule="evenodd" d="M20.7642 237.207C20.9731 237.36 21.1871 237.507 21.4061 237.647C26.9576 241.193 35.2837 240.087 44.5526 234.572C53.8215 229.058 63.274 219.586 70.8307 208.241C85.806 185.758 163.013 30.2853 170.454 15.2825L20.7642 237.207Z" fill="#D01120"/>
</svg>
