<svg width="970" height="133" viewBox="0 0 970 133" fill="none" xmlns="http://www.w3.org/2000/svg">
  <g opacity="0.15">
    <path d="M0 0.599132H12.9188C15.8396 0.599132 18.4109 1.13586 20.6327 2.20931C22.8794 3.25779 24.6144 4.7681 25.8376 6.74025C27.0858 8.7124 27.7099 11.034 27.7099 13.7052C27.7099 16.3763 27.0858 18.698 25.8376 20.6701C24.6144 22.6423 22.8794 24.1651 20.6327 25.2385C18.4109 26.287 15.8396 26.8112 12.9188 26.8112H0V0.599132ZM12.5444 19.9212C14.4416 19.9212 15.9519 19.3845 17.0753 18.311C18.2236 17.2126 18.7978 15.6773 18.7978 13.7052C18.7978 11.733 18.2236 10.2102 17.0753 9.13679C15.9519 8.03837 14.4416 7.48917 12.5444 7.48917H8.83722V19.9212H12.5444Z" fill="#8C8C8C"/>
    <path d="M45.8027 27.4104C42.9818 27.4104 40.4479 26.8237 38.2012 25.6504C35.9544 24.4771 34.1945 22.8544 32.9213 20.7824C31.6482 18.6855 31.0116 16.3264 31.0116 13.7052C31.0116 11.084 31.6482 8.73736 32.9213 6.66536C34.1945 4.56839 35.9544 2.93326 38.2012 1.75995C40.4479 0.586651 42.9818 0 45.8027 0C48.6236 0 51.1575 0.586651 53.4042 1.75995C55.651 2.93326 57.4109 4.56839 58.6841 6.66536C59.9572 8.73736 60.5938 11.084 60.5938 13.7052C60.5938 16.3264 59.9572 18.6855 58.6841 20.7824C57.4109 22.8544 55.651 24.4771 53.4042 25.6504C51.1575 26.8237 48.6236 27.4104 45.8027 27.4104ZM45.8027 20.2582C46.9011 20.2582 47.8872 19.9961 48.7609 19.4718C49.6596 18.9226 50.3711 18.1612 50.8953 17.1876C51.4196 16.1891 51.6817 15.0283 51.6817 13.7052C51.6817 12.3821 51.4196 11.2338 50.8953 10.2602C50.3711 9.26161 49.6596 8.50021 48.7609 7.97596C47.8872 7.42676 46.9011 7.15216 45.8027 7.15216C44.7043 7.15216 43.7057 7.42676 42.807 7.97596C41.9333 8.50021 41.2343 9.26161 40.7101 10.2602C40.1858 11.2338 39.9237 12.3821 39.9237 13.7052C39.9237 15.0283 40.1858 16.1891 40.7101 17.1876C41.2343 18.1612 41.9333 18.9226 42.807 19.4718C43.7057 19.9961 44.7043 20.2582 45.8027 20.2582Z" fill="#8C8C8C"/>
    <path d="M78.6673 27.4104C75.8464 27.4104 73.3125 26.8237 71.0658 25.6504C68.819 24.4771 67.0591 22.8544 65.7859 20.7824C64.5128 18.6855 63.8762 16.3264 63.8762 13.7052C63.8762 11.084 64.5128 8.73736 65.7859 6.66536C67.0591 4.56839 68.819 2.93326 71.0658 1.75995C73.3125 0.586651 75.8464 0 78.6673 0C81.4882 0 84.022 0.586651 86.2688 1.75995C88.5155 2.93326 90.2755 4.56839 91.5486 6.66536C92.8218 8.73736 93.4584 11.084 93.4584 13.7052C93.4584 16.3264 92.8218 18.6855 91.5486 20.7824C90.2755 22.8544 88.5155 24.4771 86.2688 25.6504C84.022 26.8237 81.4882 27.4104 78.6673 27.4104ZM78.6673 20.2582C79.7657 20.2582 80.7518 19.9961 81.6255 19.4718C82.5242 18.9226 83.2357 18.1612 83.7599 17.1876C84.2842 16.1891 84.5463 15.0283 84.5463 13.7052C84.5463 12.3821 84.2842 11.2338 83.7599 10.2602C83.2357 9.26161 82.5242 8.50021 81.6255 7.97596C80.7518 7.42676 79.7657 7.15216 78.6673 7.15216C77.5689 7.15216 76.5703 7.42676 75.6716 7.97596C74.7979 8.50021 74.0989 9.26161 73.5746 10.2602C73.0504 11.2338 72.7883 12.3821 72.7883 13.7052C72.7883 15.0283 73.0504 16.1891 73.5746 17.1876C74.0989 18.1612 74.7979 18.9226 75.6716 19.4718C76.5703 19.9961 77.5689 20.2582 78.6673 20.2582Z" fill="#8C8C8C"/>
    <path d="M121.193 26.8112L121.118 14.866L115.426 24.4521H111.532L105.84 15.2779V26.8112H97.7892V0.599132H105.054L113.591 14.5664L121.904 0.599132H129.169L129.244 26.8112H121.193Z" fill="#8C8C8C"/>
    <path d="M55.035 54.7489V61.1366H34.1496V36.0166H54.5685V42.4043H42.475V45.3469H53.0972V51.4474H42.475V54.7489H55.035Z" fill="#1F1F1F"/>
    <path d="M63.7499 42.5837H56.3933V36.0166H79.5754V42.5837H72.2189V61.1366H63.7499V42.5837Z" fill="#1F1F1F"/>
    <path d="M102.66 54.7489V61.1366H81.7751V36.0166H102.194V42.4043H90.1005V45.3469H100.723V51.4474H90.1005V54.7489H102.66Z" fill="#1F1F1F"/>
    <path d="M116.686 54.8207H114.39V61.1366H105.921V36.0166H118.014C120.335 36.0166 122.356 36.3994 124.079 37.165C125.801 37.9305 127.129 39.031 128.062 40.4664C128.995 41.9019 129.462 43.5765 129.462 45.4904C129.462 47.2847 129.055 48.8517 128.242 50.1914C127.428 51.5312 126.256 52.5958 124.725 53.3853L130 61.1366H120.957L116.686 54.8207ZM120.921 45.4904C120.921 44.5574 120.634 43.8397 120.06 43.3373C119.486 42.811 118.624 42.5478 117.476 42.5478H114.39V48.4331H117.476C118.624 48.4331 119.486 48.1819 120.06 47.6795C120.634 47.1531 120.921 46.4235 120.921 45.4904Z" fill="#1F1F1F"/>
    <path fill-rule="evenodd" clip-rule="evenodd" d="M14.2484 48.6546L6.962 36.0167H0.000198364V61.1366H7.7156V50.0838L10.3478 54.1155L14.2484 48.6546ZM22.4788 50.2149L29.0707 36.0166L30.0723 36.0167L30.1441 61.1366H22.4287L22.4788 50.2149Z" fill="#1F1F1F"/>
    <path fill-rule="evenodd" clip-rule="evenodd" d="M32.7651 20.4266L10.8756 51.2025C10.7391 51.3654 10.6139 51.5408 10.5016 51.7284L10.4291 51.8303L10.4394 51.836L10.4393 51.836C9.32087 53.839 10.0748 56.3901 12.1234 57.534C14.1719 58.6779 16.7393 57.9814 17.8578 55.9784L17.8578 55.9784L17.868 55.9841L17.9145 55.8733C18.0216 55.6677 18.1095 55.4568 18.1787 55.2426L32.7651 20.4266ZM11.9658 52.2775C11.2224 53.5719 11.6685 55.2236 12.9622 55.9665C14.2559 56.7095 15.9073 56.2624 16.6507 54.968C17.394 53.6735 16.9479 52.0219 15.6542 51.2789C14.3606 50.536 12.7092 50.983 11.9658 52.2775Z" fill="#8C8C8C"/>
    <path d="M140 0.599132H152.919C155.84 0.599132 158.411 1.13586 160.633 2.20931C162.879 3.25779 164.614 4.7681 165.838 6.74025C167.086 8.7124 167.71 11.034 167.71 13.7052C167.71 16.3763 167.086 18.698 165.838 20.6701C164.614 22.6423 162.879 24.1651 160.633 25.2385C158.411 26.287 155.84 26.8112 152.919 26.8112H140V0.599132ZM152.544 19.9212C154.442 19.9212 155.952 19.3845 157.075 18.311C158.224 17.2126 158.798 15.6773 158.798 13.7052C158.798 11.733 158.224 10.2102 157.075 9.13679C155.952 8.03837 154.442 7.48917 152.544 7.48917H148.837V19.9212H152.544Z" fill="#8C8C8C"/>
    <path d="M185.803 27.4104C182.982 27.4104 180.448 26.8237 178.201 25.6504C175.954 24.4771 174.194 22.8544 172.921 20.7824C171.648 18.6855 171.012 16.3264 171.012 13.7052C171.012 11.084 171.648 8.73736 172.921 6.66536C174.194 4.56839 175.954 2.93326 178.201 1.75995C180.448 0.586651 182.982 0 185.803 0C188.624 0 191.157 0.586651 193.404 1.75995C195.651 2.93326 197.411 4.56839 198.684 6.66536C199.957 8.73736 200.594 11.084 200.594 13.7052C200.594 16.3264 199.957 18.6855 198.684 20.7824C197.411 22.8544 195.651 24.4771 193.404 25.6504C191.157 26.8237 188.624 27.4104 185.803 27.4104ZM185.803 20.2582C186.901 20.2582 187.887 19.9961 188.761 19.4718C189.66 18.9226 190.371 18.1612 190.895 17.1876C191.42 16.1891 191.682 15.0283 191.682 13.7052C191.682 12.3821 191.42 11.2338 190.895 10.2602C190.371 9.26161 189.66 8.50021 188.761 7.97596C187.887 7.42676 186.901 7.15216 185.803 7.15216C184.704 7.15216 183.706 7.42676 182.807 7.97596C181.933 8.50021 181.234 9.26161 180.71 10.2602C180.186 11.2338 179.924 12.3821 179.924 13.7052C179.924 15.0283 180.186 16.1891 180.71 17.1876C181.234 18.1612 181.933 18.9226 182.807 19.4718C183.706 19.9961 184.704 20.2582 185.803 20.2582Z" fill="#8C8C8C"/>
    <path d="M218.667 27.4104C215.846 27.4104 213.313 26.8237 211.066 25.6504C208.819 24.4771 207.059 22.8544 205.786 20.7824C204.513 18.6855 203.876 16.3264 203.876 13.7052C203.876 11.084 204.513 8.73736 205.786 6.66536C207.059 4.56839 208.819 2.93326 211.066 1.75995C213.313 0.586651 215.846 0 218.667 0C221.488 0 224.022 0.586651 226.269 1.75995C228.516 2.93326 230.275 4.56839 231.549 6.66536C232.822 8.73736 233.458 11.084 233.458 13.7052C233.458 16.3264 232.822 18.6855 231.549 20.7824C230.275 22.8544 228.516 24.4771 226.269 25.6504C224.022 26.8237 221.488 27.4104 218.667 27.4104ZM218.667 20.2582C219.766 20.2582 220.752 19.9961 221.626 19.4718C222.524 18.9226 223.236 18.1612 223.76 17.1876C224.284 16.1891 224.546 15.0283 224.546 13.7052C224.546 12.3821 224.284 11.2338 223.76 10.2602C223.236 9.26161 222.524 8.50021 221.626 7.97596C220.752 7.42676 219.766 7.15216 218.667 7.15216C217.569 7.15216 216.57 7.42676 215.672 7.97596C214.798 8.50021 214.099 9.26161 213.575 10.2602C213.05 11.2338 212.788 12.3821 212.788 13.7052C212.788 15.0283 213.05 16.1891 213.575 17.1876C214.099 18.1612 214.798 18.9226 215.672 19.4718C216.57 19.9961 217.569 20.2582 218.667 20.2582Z" fill="#8C8C8C"/>
    <path d="M261.193 26.8112L261.118 14.866L255.426 24.4521H251.532L245.84 15.2779V26.8112H237.789V0.599132H245.054L253.591 14.5664L261.904 0.599132H269.169L269.244 26.8112H261.193Z" fill="#8C8C8C"/>
    <path d="M195.035 54.7489V61.1366H174.15V36.0166H194.568V42.4043H182.475V45.3469H193.097V51.4474H182.475V54.7489H195.035Z" fill="#1F1F1F"/>
    <path d="M203.75 42.5837H196.393V36.0166H219.575V42.5837H212.219V61.1366H203.75V42.5837Z" fill="#1F1F1F"/>
    <path d="M242.66 54.7489V61.1366H221.775V36.0166H242.194V42.4043H230.101V45.3469H240.723V51.4474H230.101V54.7489H242.66Z" fill="#1F1F1F"/>
    <path d="M256.686 54.8207H254.39V61.1366H245.921V36.0166H258.014C260.335 36.0166 262.356 36.3994 264.079 37.165C265.801 37.9305 267.129 39.031 268.062 40.4664C268.995 41.9019 269.462 43.5765 269.462 45.4904C269.462 47.2847 269.055 48.8517 268.242 50.1914C267.428 51.5312 266.256 52.5958 264.725 53.3853L270 61.1366H260.957L256.686 54.8207ZM260.921 45.4904C260.921 44.5574 260.634 43.8397 260.06 43.3373C259.486 42.811 258.624 42.5478 257.476 42.5478H254.39V48.4331H257.476C258.624 48.4331 259.486 48.1819 260.06 47.6795C260.634 47.1531 260.921 46.4235 260.921 45.4904Z" fill="#1F1F1F"/>
    <path fill-rule="evenodd" clip-rule="evenodd" d="M154.248 48.6546L146.962 36.0167H140V61.1366H147.716V50.0838L150.348 54.1155L154.248 48.6546ZM162.479 50.2149L169.071 36.0166L170.072 36.0167L170.144 61.1366H162.429L162.479 50.2149Z" fill="#1F1F1F"/>
    <path fill-rule="evenodd" clip-rule="evenodd" d="M172.765 20.4266L150.876 51.2025C150.739 51.3654 150.614 51.5408 150.502 51.7284L150.429 51.8303L150.439 51.836L150.439 51.836C149.321 53.839 150.075 56.3901 152.123 57.534C154.172 58.6779 156.739 57.9814 157.858 55.9784L157.858 55.9784L157.868 55.9841L157.914 55.8733C158.022 55.6677 158.11 55.4568 158.179 55.2426L172.765 20.4266ZM151.966 52.2775C151.222 53.5719 151.669 55.2236 152.962 55.9665C154.256 56.7095 155.907 56.2624 156.651 54.968C157.394 53.6735 156.948 52.0219 155.654 51.2789C154.361 50.536 152.709 50.983 151.966 52.2775Z" fill="#8C8C8C"/>
    <path d="M280 0.599132H292.919C295.84 0.599132 298.411 1.13586 300.633 2.20931C302.879 3.25779 304.614 4.7681 305.838 6.74025C307.086 8.7124 307.71 11.034 307.71 13.7052C307.71 16.3763 307.086 18.698 305.838 20.6701C304.614 22.6423 302.879 24.1651 300.633 25.2385C298.411 26.287 295.84 26.8112 292.919 26.8112H280V0.599132ZM292.544 19.9212C294.442 19.9212 295.952 19.3845 297.075 18.311C298.224 17.2126 298.798 15.6773 298.798 13.7052C298.798 11.733 298.224 10.2102 297.075 9.13679C295.952 8.03837 294.442 7.48917 292.544 7.48917H288.837V19.9212H292.544Z" fill="#8C8C8C"/>
    <path d="M325.803 27.4104C322.982 27.4104 320.448 26.8237 318.201 25.6504C315.954 24.4771 314.194 22.8544 312.921 20.7824C311.648 18.6855 311.012 16.3264 311.012 13.7052C311.012 11.084 311.648 8.73736 312.921 6.66536C314.194 4.56839 315.954 2.93326 318.201 1.75995C320.448 0.586651 322.982 0 325.803 0C328.624 0 331.157 0.586651 333.404 1.75995C335.651 2.93326 337.411 4.56839 338.684 6.66536C339.957 8.73736 340.594 11.084 340.594 13.7052C340.594 16.3264 339.957 18.6855 338.684 20.7824C337.411 22.8544 335.651 24.4771 333.404 25.6504C331.157 26.8237 328.624 27.4104 325.803 27.4104ZM325.803 20.2582C326.901 20.2582 327.887 19.9961 328.761 19.4718C329.66 18.9226 330.371 18.1612 330.895 17.1876C331.42 16.1891 331.682 15.0283 331.682 13.7052C331.682 12.3821 331.42 11.2338 330.895 10.2602C330.371 9.26161 329.66 8.50021 328.761 7.97596C327.887 7.42676 326.901 7.15216 325.803 7.15216C324.704 7.15216 323.706 7.42676 322.807 7.97596C321.933 8.50021 321.234 9.26161 320.71 10.2602C320.186 11.2338 319.924 12.3821 319.924 13.7052C319.924 15.0283 320.186 16.1891 320.71 17.1876C321.234 18.1612 321.933 18.9226 322.807 19.4718C323.706 19.9961 324.704 20.2582 325.803 20.2582Z" fill="#8C8C8C"/>
    <path d="M358.667 27.4104C355.846 27.4104 353.313 26.8237 351.066 25.6504C348.819 24.4771 347.059 22.8544 345.786 20.7824C344.513 18.6855 343.876 16.3264 343.876 13.7052C343.876 11.084 344.513 8.73736 345.786 6.66536C347.059 4.56839 348.819 2.93326 351.066 1.75995C353.313 0.586651 355.846 0 358.667 0C361.488 0 364.022 0.586651 366.269 1.75995C368.516 2.93326 370.275 4.56839 371.549 6.66536C372.822 8.73736 373.458 11.084 373.458 13.7052C373.458 16.3264 372.822 18.6855 371.549 20.7824C370.275 22.8544 368.516 24.4771 366.269 25.6504C364.022 26.8237 361.488 27.4104 358.667 27.4104ZM358.667 20.2582C359.766 20.2582 360.752 19.9961 361.626 19.4718C362.524 18.9226 363.236 18.1612 363.76 17.1876C364.284 16.1891 364.546 15.0283 364.546 13.7052C364.546 12.3821 364.284 11.2338 363.76 10.2602C363.236 9.26161 362.524 8.50021 361.626 7.97596C360.752 7.42676 359.766 7.15216 358.667 7.15216C357.569 7.15216 356.57 7.42676 355.672 7.97596C354.798 8.50021 354.099 9.26161 353.575 10.2602C353.05 11.2338 352.788 12.3821 352.788 13.7052C352.788 15.0283 353.05 16.1891 353.575 17.1876C354.099 18.1612 354.798 18.9226 355.672 19.4718C356.57 19.9961 357.569 20.2582 358.667 20.2582Z" fill="#8C8C8C"/>
    <path d="M401.193 26.8112L401.118 14.866L395.426 24.4521H391.532L385.84 15.2779V26.8112H377.789V0.599132H385.054L393.591 14.5664L401.904 0.599132H409.169L409.244 26.8112H401.193Z" fill="#8C8C8C"/>
    <path d="M335.035 54.7489V61.1366H314.15V36.0166H334.568V42.4043H322.475V45.3469H333.097V51.4474H322.475V54.7489H335.035Z" fill="#1F1F1F"/>
    <path d="M343.75 42.5837H336.393V36.0166H359.575V42.5837H352.219V61.1366H343.75V42.5837Z" fill="#1F1F1F"/>
    <path d="M382.66 54.7489V61.1366H361.775V36.0166H382.194V42.4043H370.101V45.3469H380.723V51.4474H370.101V54.7489H382.66Z" fill="#1F1F1F"/>
    <path d="M396.686 54.8207H394.39V61.1366H385.921V36.0166H398.014C400.335 36.0166 402.356 36.3994 404.079 37.165C405.801 37.9305 407.129 39.031 408.062 40.4664C408.995 41.9019 409.462 43.5765 409.462 45.4904C409.462 47.2847 409.055 48.8517 408.242 50.1914C407.428 51.5312 406.256 52.5958 404.725 53.3853L410 61.1366H400.957L396.686 54.8207ZM400.921 45.4904C400.921 44.5574 400.634 43.8397 400.06 43.3373C399.486 42.811 398.624 42.5478 397.476 42.5478H394.39V48.4331H397.476C398.624 48.4331 399.486 48.1819 400.06 47.6795C400.634 47.1531 400.921 46.4235 400.921 45.4904Z" fill="#1F1F1F"/>
    <path fill-rule="evenodd" clip-rule="evenodd" d="M294.248 48.6546L286.962 36.0167H280V61.1366H287.716V50.0838L290.348 54.1155L294.248 48.6546ZM302.479 50.2149L309.071 36.0166L310.072 36.0167L310.144 61.1366H302.429L302.479 50.2149Z" fill="#1F1F1F"/>
    <path fill-rule="evenodd" clip-rule="evenodd" d="M312.765 20.4266L290.876 51.2025C290.739 51.3654 290.614 51.5408 290.502 51.7284L290.429 51.8303L290.439 51.836L290.439 51.836C289.321 53.839 290.075 56.3901 292.123 57.534C294.172 58.6779 296.739 57.9814 297.858 55.9784L297.858 55.9784L297.868 55.9841L297.914 55.8733C298.022 55.6677 298.11 55.4568 298.179 55.2426L312.765 20.4266ZM291.966 52.2775C291.222 53.5719 291.669 55.2236 292.962 55.9665C294.256 56.7095 295.907 56.2624 296.651 54.968C297.394 53.6735 296.948 52.0219 295.654 51.2789C294.361 50.536 292.709 50.983 291.966 52.2775Z" fill="#8C8C8C"/>
    <path d="M420 0.599132H432.919C435.84 0.599132 438.411 1.13586 440.633 2.20931C442.879 3.25779 444.614 4.7681 445.838 6.74025C447.086 8.7124 447.71 11.034 447.71 13.7052C447.71 16.3763 447.086 18.698 445.838 20.6701C444.614 22.6423 442.879 24.1651 440.633 25.2385C438.411 26.287 435.84 26.8112 432.919 26.8112H420V0.599132ZM432.544 19.9212C434.442 19.9212 435.952 19.3845 437.075 18.311C438.224 17.2126 438.798 15.6773 438.798 13.7052C438.798 11.733 438.224 10.2102 437.075 9.13679C435.952 8.03837 434.442 7.48917 432.544 7.48917H428.837V19.9212H432.544Z" fill="#8C8C8C"/>
    <path d="M465.803 27.4104C462.982 27.4104 460.448 26.8237 458.201 25.6504C455.954 24.4771 454.194 22.8544 452.921 20.7824C451.648 18.6855 451.012 16.3264 451.012 13.7052C451.012 11.084 451.648 8.73736 452.921 6.66536C454.194 4.56839 455.954 2.93326 458.201 1.75995C460.448 0.586651 462.982 0 465.803 0C468.624 0 471.157 0.586651 473.404 1.75995C475.651 2.93326 477.411 4.56839 478.684 6.66536C479.957 8.73736 480.594 11.084 480.594 13.7052C480.594 16.3264 479.957 18.6855 478.684 20.7824C477.411 22.8544 475.651 24.4771 473.404 25.6504C471.157 26.8237 468.624 27.4104 465.803 27.4104ZM465.803 20.2582C466.901 20.2582 467.887 19.9961 468.761 19.4718C469.66 18.9226 470.371 18.1612 470.895 17.1876C471.42 16.1891 471.682 15.0283 471.682 13.7052C471.682 12.3821 471.42 11.2338 470.895 10.2602C470.371 9.26161 469.66 8.50021 468.761 7.97596C467.887 7.42676 466.901 7.15216 465.803 7.15216C464.704 7.15216 463.706 7.42676 462.807 7.97596C461.933 8.50021 461.234 9.26161 460.71 10.2602C460.186 11.2338 459.924 12.3821 459.924 13.7052C459.924 15.0283 460.186 16.1891 460.71 17.1876C461.234 18.1612 461.933 18.9226 462.807 19.4718C463.706 19.9961 464.704 20.2582 465.803 20.2582Z" fill="#8C8C8C"/>
    <path d="M498.667 27.4104C495.846 27.4104 493.313 26.8237 491.066 25.6504C488.819 24.4771 487.059 22.8544 485.786 20.7824C484.513 18.6855 483.876 16.3264 483.876 13.7052C483.876 11.084 484.513 8.73736 485.786 6.66536C487.059 4.56839 488.819 2.93326 491.066 1.75995C493.313 0.586651 495.846 0 498.667 0C501.488 0 504.022 0.586651 506.269 1.75995C508.516 2.93326 510.275 4.56839 511.549 6.66536C512.822 8.73736 513.458 11.084 513.458 13.7052C513.458 16.3264 512.822 18.6855 511.549 20.7824C510.275 22.8544 508.516 24.4771 506.269 25.6504C504.022 26.8237 501.488 27.4104 498.667 27.4104ZM498.667 20.2582C499.766 20.2582 500.752 19.9961 501.626 19.4718C502.524 18.9226 503.236 18.1612 503.76 17.1876C504.284 16.1891 504.546 15.0283 504.546 13.7052C504.546 12.3821 504.284 11.2338 503.76 10.2602C503.236 9.26161 502.524 8.50021 501.626 7.97596C500.752 7.42676 499.766 7.15216 498.667 7.15216C497.569 7.15216 496.57 7.42676 495.672 7.97596C494.798 8.50021 494.099 9.26161 493.575 10.2602C493.05 11.2338 492.788 12.3821 492.788 13.7052C492.788 15.0283 493.05 16.1891 493.575 17.1876C494.099 18.1612 494.798 18.9226 495.672 19.4718C496.57 19.9961 497.569 20.2582 498.667 20.2582Z" fill="#8C8C8C"/>
    <path d="M541.193 26.8112L541.118 14.866L535.426 24.4521H531.532L525.84 15.2779V26.8112H517.789V0.599132H525.054L533.591 14.5664L541.904 0.599132H549.169L549.244 26.8112H541.193Z" fill="#8C8C8C"/>
    <path d="M475.035 54.7489V61.1366H454.15V36.0166H474.568V42.4043H462.475V45.3469H473.097V51.4474H462.475V54.7489H475.035Z" fill="#1F1F1F"/>
    <path d="M483.75 42.5837H476.393V36.0166H499.575V42.5837H492.219V61.1366H483.75V42.5837Z" fill="#1F1F1F"/>
    <path d="M522.66 54.7489V61.1366H501.775V36.0166H522.194V42.4043H510.101V45.3469H520.723V51.4474H510.101V54.7489H522.66Z" fill="#1F1F1F"/>
    <path d="M536.686 54.8207H534.39V61.1366H525.921V36.0166H538.014C540.335 36.0166 542.356 36.3994 544.079 37.165C545.801 37.9305 547.129 39.031 548.062 40.4664C548.995 41.9019 549.462 43.5765 549.462 45.4904C549.462 47.2847 549.055 48.8517 548.242 50.1914C547.428 51.5312 546.256 52.5958 544.725 53.3853L550 61.1366H540.957L536.686 54.8207ZM540.921 45.4904C540.921 44.5574 540.634 43.8397 540.06 43.3373C539.486 42.811 538.624 42.5478 537.476 42.5478H534.39V48.4331H537.476C538.624 48.4331 539.486 48.1819 540.06 47.6795C540.634 47.1531 540.921 46.4235 540.921 45.4904Z" fill="#1F1F1F"/>
    <path fill-rule="evenodd" clip-rule="evenodd" d="M434.248 48.6546L426.962 36.0167H420V61.1366H427.716V50.0838L430.348 54.1155L434.248 48.6546ZM442.479 50.2149L449.071 36.0166L450.072 36.0167L450.144 61.1366H442.429L442.479 50.2149Z" fill="#1F1F1F"/>
    <path fill-rule="evenodd" clip-rule="evenodd" d="M452.765 20.4266L430.876 51.2025C430.739 51.3654 430.614 51.5408 430.502 51.7284L430.429 51.8303L430.439 51.836L430.439 51.836C429.321 53.839 430.075 56.3901 432.123 57.534C434.172 58.6779 436.739 57.9814 437.858 55.9784L437.858 55.9784L437.868 55.9841L437.914 55.8733C438.022 55.6677 438.11 55.4568 438.179 55.2426L452.765 20.4266ZM431.966 52.2775C431.222 53.5719 431.669 55.2236 432.962 55.9665C434.256 56.7095 435.907 56.2624 436.651 54.968C437.394 53.6735 436.948 52.0219 435.654 51.2789C434.361 50.536 432.709 50.983 431.966 52.2775Z" fill="#8C8C8C"/>
    <path d="M560 0.599132H572.919C575.84 0.599132 578.411 1.13586 580.633 2.20931C582.879 3.25779 584.614 4.7681 585.838 6.74025C587.086 8.7124 587.71 11.034 587.71 13.7052C587.71 16.3763 587.086 18.698 585.838 20.6701C584.614 22.6423 582.879 24.1651 580.633 25.2385C578.411 26.287 575.84 26.8112 572.919 26.8112H560V0.599132ZM572.544 19.9212C574.442 19.9212 575.952 19.3845 577.075 18.311C578.224 17.2126 578.798 15.6773 578.798 13.7052C578.798 11.733 578.224 10.2102 577.075 9.13679C575.952 8.03837 574.442 7.48917 572.544 7.48917H568.837V19.9212H572.544Z" fill="#8C8C8C"/>
    <path d="M605.803 27.4104C602.982 27.4104 600.448 26.8237 598.201 25.6504C595.954 24.4771 594.194 22.8544 592.921 20.7824C591.648 18.6855 591.012 16.3264 591.012 13.7052C591.012 11.084 591.648 8.73736 592.921 6.66536C594.194 4.56839 595.954 2.93326 598.201 1.75995C600.448 0.586651 602.982 0 605.803 0C608.624 0 611.157 0.586651 613.404 1.75995C615.651 2.93326 617.411 4.56839 618.684 6.66536C619.957 8.73736 620.594 11.084 620.594 13.7052C620.594 16.3264 619.957 18.6855 618.684 20.7824C617.411 22.8544 615.651 24.4771 613.404 25.6504C611.157 26.8237 608.624 27.4104 605.803 27.4104ZM605.803 20.2582C606.901 20.2582 607.887 19.9961 608.761 19.4718C609.66 18.9226 610.371 18.1612 610.895 17.1876C611.42 16.1891 611.682 15.0283 611.682 13.7052C611.682 12.3821 611.42 11.2338 610.895 10.2602C610.371 9.26161 609.66 8.50021 608.761 7.97596C607.887 7.42676 606.901 7.15216 605.803 7.15216C604.704 7.15216 603.706 7.42676 602.807 7.97596C601.933 8.50021 601.234 9.26161 600.71 10.2602C600.186 11.2338 599.924 12.3821 599.924 13.7052C599.924 15.0283 600.186 16.1891 600.71 17.1876C601.234 18.1612 601.933 18.9226 602.807 19.4718C603.706 19.9961 604.704 20.2582 605.803 20.2582Z" fill="#8C8C8C"/>
    <path d="M638.667 27.4104C635.846 27.4104 633.313 26.8237 631.066 25.6504C628.819 24.4771 627.059 22.8544 625.786 20.7824C624.513 18.6855 623.876 16.3264 623.876 13.7052C623.876 11.084 624.513 8.73736 625.786 6.66536C627.059 4.56839 628.819 2.93326 631.066 1.75995C633.313 0.586651 635.846 0 638.667 0C641.488 0 644.022 0.586651 646.269 1.75995C648.516 2.93326 650.275 4.56839 651.549 6.66536C652.822 8.73736 653.458 11.084 653.458 13.7052C653.458 16.3264 652.822 18.6855 651.549 20.7824C650.275 22.8544 648.516 24.4771 646.269 25.6504C644.022 26.8237 641.488 27.4104 638.667 27.4104ZM638.667 20.2582C639.766 20.2582 640.752 19.9961 641.626 19.4718C642.524 18.9226 643.236 18.1612 643.76 17.1876C644.284 16.1891 644.546 15.0283 644.546 13.7052C644.546 12.3821 644.284 11.2338 643.76 10.2602C643.236 9.26161 642.524 8.50021 641.626 7.97596C640.752 7.42676 639.766 7.15216 638.667 7.15216C637.569 7.15216 636.57 7.42676 635.672 7.97596C634.798 8.50021 634.099 9.26161 633.575 10.2602C633.05 11.2338 632.788 12.3821 632.788 13.7052C632.788 15.0283 633.05 16.1891 633.575 17.1876C634.099 18.1612 634.798 18.9226 635.672 19.4718C636.57 19.9961 637.569 20.2582 638.667 20.2582Z" fill="#8C8C8C"/>
    <path d="M681.193 26.8112L681.118 14.866L675.426 24.4521H671.532L665.84 15.2779V26.8112H657.789V0.599132H665.054L673.591 14.5664L681.904 0.599132H689.169L689.244 26.8112H681.193Z" fill="#8C8C8C"/>
    <path d="M615.035 54.7489V61.1366H594.15V36.0166H614.568V42.4043H602.475V45.3469H613.097V51.4474H602.475V54.7489H615.035Z" fill="#1F1F1F"/>
    <path d="M623.75 42.5837H616.393V36.0166H639.575V42.5837H632.219V61.1366H623.75V42.5837Z" fill="#1F1F1F"/>
    <path d="M662.66 54.7489V61.1366H641.775V36.0166H662.194V42.4043H650.101V45.3469H660.723V51.4474H650.101V54.7489H662.66Z" fill="#1F1F1F"/>
    <path d="M676.686 54.8207H674.39V61.1366H665.921V36.0166H678.014C680.335 36.0166 682.356 36.3994 684.079 37.165C685.801 37.9305 687.129 39.031 688.062 40.4664C688.995 41.9019 689.462 43.5765 689.462 45.4904C689.462 47.2847 689.055 48.8517 688.242 50.1914C687.428 51.5312 686.256 52.5958 684.725 53.3853L690 61.1366H680.957L676.686 54.8207ZM680.921 45.4904C680.921 44.5574 680.634 43.8397 680.06 43.3373C679.485 42.811 678.624 42.5478 677.476 42.5478H674.39V48.4331H677.476C678.624 48.4331 679.485 48.1819 680.06 47.6795C680.634 47.1531 680.921 46.4235 680.921 45.4904Z" fill="#1F1F1F"/>
    <path fill-rule="evenodd" clip-rule="evenodd" d="M574.248 48.6546L566.962 36.0167H560V61.1366H567.716V50.0838L570.348 54.1155L574.248 48.6546ZM582.479 50.2149L589.071 36.0166L590.072 36.0167L590.144 61.1366H582.429L582.479 50.2149Z" fill="#1F1F1F"/>
    <path fill-rule="evenodd" clip-rule="evenodd" d="M592.765 20.4266L570.876 51.2025C570.739 51.3654 570.614 51.5408 570.502 51.7284L570.429 51.8303L570.439 51.836L570.439 51.836C569.321 53.839 570.075 56.3901 572.123 57.534C574.172 58.6779 576.739 57.9814 577.858 55.9784L577.858 55.9784L577.868 55.9841L577.914 55.8733C578.022 55.6677 578.109 55.4568 578.179 55.2426L592.765 20.4266ZM571.966 52.2775C571.222 53.5719 571.669 55.2236 572.962 55.9665C574.256 56.7095 575.907 56.2624 576.651 54.968C577.394 53.6735 576.948 52.0219 575.654 51.2789C574.361 50.536 572.709 50.983 571.966 52.2775Z" fill="#8C8C8C"/>
    <path d="M700 0.599132H712.919C715.84 0.599132 718.411 1.13586 720.633 2.20931C722.879 3.25779 724.614 4.7681 725.838 6.74025C727.086 8.7124 727.71 11.034 727.71 13.7052C727.71 16.3763 727.086 18.698 725.838 20.6701C724.614 22.6423 722.879 24.1651 720.633 25.2385C718.411 26.287 715.84 26.8112 712.919 26.8112H700V0.599132ZM712.544 19.9212C714.442 19.9212 715.952 19.3845 717.075 18.311C718.224 17.2126 718.798 15.6773 718.798 13.7052C718.798 11.733 718.224 10.2102 717.075 9.13679C715.952 8.03837 714.442 7.48917 712.544 7.48917H708.837V19.9212H712.544Z" fill="#8C8C8C"/>
    <path d="M745.803 27.4104C742.982 27.4104 740.448 26.8237 738.201 25.6504C735.954 24.4771 734.194 22.8544 732.921 20.7824C731.648 18.6855 731.012 16.3264 731.012 13.7052C731.012 11.084 731.648 8.73736 732.921 6.66536C734.194 4.56839 735.954 2.93326 738.201 1.75995C740.448 0.586651 742.982 0 745.803 0C748.624 0 751.157 0.586651 753.404 1.75995C755.651 2.93326 757.411 4.56839 758.684 6.66536C759.957 8.73736 760.594 11.084 760.594 13.7052C760.594 16.3264 759.957 18.6855 758.684 20.7824C757.411 22.8544 755.651 24.4771 753.404 25.6504C751.157 26.8237 748.624 27.4104 745.803 27.4104ZM745.803 20.2582C746.901 20.2582 747.887 19.9961 748.761 19.4718C749.66 18.9226 750.371 18.1612 750.895 17.1876C751.42 16.1891 751.682 15.0283 751.682 13.7052C751.682 12.3821 751.42 11.2338 750.895 10.2602C750.371 9.26161 749.66 8.50021 748.761 7.97596C747.887 7.42676 746.901 7.15216 745.803 7.15216C744.704 7.15216 743.706 7.42676 742.807 7.97596C741.933 8.50021 741.234 9.26161 740.71 10.2602C740.186 11.2338 739.924 12.3821 739.924 13.7052C739.924 15.0283 740.186 16.1891 740.71 17.1876C741.234 18.1612 741.933 18.9226 742.807 19.4718C743.706 19.9961 744.704 20.2582 745.803 20.2582Z" fill="#8C8C8C"/>
    <path d="M778.667 27.4104C775.846 27.4104 773.313 26.8237 771.066 25.6504C768.819 24.4771 767.059 22.8544 765.786 20.7824C764.513 18.6855 763.876 16.3264 763.876 13.7052C763.876 11.084 764.513 8.73736 765.786 6.66536C767.059 4.56839 768.819 2.93326 771.066 1.75995C773.313 0.586651 775.846 0 778.667 0C781.488 0 784.022 0.586651 786.269 1.75995C788.516 2.93326 790.275 4.56839 791.549 6.66536C792.822 8.73736 793.458 11.084 793.458 13.7052C793.458 16.3264 792.822 18.6855 791.549 20.7824C790.275 22.8544 788.516 24.4771 786.269 25.6504C784.022 26.8237 781.488 27.4104 778.667 27.4104ZM778.667 20.2582C779.766 20.2582 780.752 19.9961 781.626 19.4718C782.524 18.9226 783.236 18.1612 783.76 17.1876C784.284 16.1891 784.546 15.0283 784.546 13.7052C784.546 12.3821 784.284 11.2338 783.76 10.2602C783.236 9.26161 782.524 8.50021 781.626 7.97596C780.752 7.42676 779.766 7.15216 778.667 7.15216C777.569 7.15216 776.57 7.42676 775.672 7.97596C774.798 8.50021 774.099 9.26161 773.575 10.2602C773.05 11.2338 772.788 12.3821 772.788 13.7052C772.788 15.0283 773.05 16.1891 773.575 17.1876C774.099 18.1612 774.798 18.9226 775.672 19.4718C776.57 19.9961 777.569 20.2582 778.667 20.2582Z" fill="#8C8C8C"/>
    <path d="M821.193 26.8112L821.118 14.866L815.426 24.4521H811.532L805.84 15.2779V26.8112H797.789V0.599132H805.054L813.591 14.5664L821.904 0.599132H829.169L829.244 26.8112H821.193Z" fill="#8C8C8C"/>
    <path d="M755.035 54.7489V61.1366H734.15V36.0166H754.568V42.4043H742.475V45.3469H753.097V51.4474H742.475V54.7489H755.035Z" fill="#1F1F1F"/>
    <path d="M763.75 42.5837H756.393V36.0166H779.575V42.5837H772.219V61.1366H763.75V42.5837Z" fill="#1F1F1F"/>
    <path d="M802.66 54.7489V61.1366H781.775V36.0166H802.194V42.4043H790.101V45.3469H800.723V51.4474H790.101V54.7489H802.66Z" fill="#1F1F1F"/>
    <path d="M816.686 54.8207H814.39V61.1366H805.921V36.0166H818.014C820.335 36.0166 822.356 36.3994 824.079 37.165C825.801 37.9305 827.129 39.031 828.062 40.4664C828.995 41.9019 829.462 43.5765 829.462 45.4904C829.462 47.2847 829.055 48.8517 828.242 50.1914C827.428 51.5312 826.256 52.5958 824.725 53.3853L830 61.1366H820.957L816.686 54.8207ZM820.921 45.4904C820.921 44.5574 820.634 43.8397 820.06 43.3373C819.485 42.811 818.624 42.5478 817.476 42.5478H814.39V48.4331H817.476C818.624 48.4331 819.485 48.1819 820.06 47.6795C820.634 47.1531 820.921 46.4235 820.921 45.4904Z" fill="#1F1F1F"/>
    <path fill-rule="evenodd" clip-rule="evenodd" d="M714.248 48.6546L706.962 36.0167H700V61.1366H707.716V50.0838L710.348 54.1155L714.248 48.6546ZM722.479 50.2149L729.071 36.0166L730.072 36.0167L730.144 61.1366H722.429L722.479 50.2149Z" fill="#1F1F1F"/>
    <path fill-rule="evenodd" clip-rule="evenodd" d="M732.765 20.4266L710.876 51.2025C710.739 51.3654 710.614 51.5408 710.502 51.7284L710.429 51.8303L710.439 51.836L710.439 51.836C709.321 53.839 710.075 56.3901 712.123 57.534C714.172 58.6779 716.739 57.9814 717.858 55.9784L717.858 55.9784L717.868 55.9841L717.914 55.8733C718.022 55.6677 718.109 55.4568 718.179 55.2426L732.765 20.4266ZM711.966 52.2775C711.222 53.5719 711.669 55.2236 712.962 55.9665C714.256 56.7095 715.907 56.2624 716.651 54.968C717.394 53.6735 716.948 52.0219 715.654 51.2789C714.361 50.536 712.709 50.983 711.966 52.2775Z" fill="#8C8C8C"/>
    <path d="M840 0.599132H852.919C855.84 0.599132 858.411 1.13586 860.633 2.20931C862.879 3.25779 864.614 4.7681 865.838 6.74025C867.086 8.7124 867.71 11.034 867.71 13.7052C867.71 16.3763 867.086 18.698 865.838 20.6701C864.614 22.6423 862.879 24.1651 860.633 25.2385C858.411 26.287 855.84 26.8112 852.919 26.8112H840V0.599132ZM852.544 19.9212C854.442 19.9212 855.952 19.3845 857.075 18.311C858.224 17.2126 858.798 15.6773 858.798 13.7052C858.798 11.733 858.224 10.2102 857.075 9.13679C855.952 8.03837 854.442 7.48917 852.544 7.48917H848.837V19.9212H852.544Z" fill="#8C8C8C"/>
    <path d="M885.803 27.4104C882.982 27.4104 880.448 26.8237 878.201 25.6504C875.954 24.4771 874.194 22.8544 872.921 20.7824C871.648 18.6855 871.012 16.3264 871.012 13.7052C871.012 11.084 871.648 8.73736 872.921 6.66536C874.194 4.56839 875.954 2.93326 878.201 1.75995C880.448 0.586651 882.982 0 885.803 0C888.624 0 891.157 0.586651 893.404 1.75995C895.651 2.93326 897.411 4.56839 898.684 6.66536C899.957 8.73736 900.594 11.084 900.594 13.7052C900.594 16.3264 899.957 18.6855 898.684 20.7824C897.411 22.8544 895.651 24.4771 893.404 25.6504C891.157 26.8237 888.624 27.4104 885.803 27.4104ZM885.803 20.2582C886.901 20.2582 887.887 19.9961 888.761 19.4718C889.66 18.9226 890.371 18.1612 890.895 17.1876C891.42 16.1891 891.682 15.0283 891.682 13.7052C891.682 12.3821 891.42 11.2338 890.895 10.2602C890.371 9.26161 889.66 8.50021 888.761 7.97596C887.887 7.42676 886.901 7.15216 885.803 7.15216C884.704 7.15216 883.706 7.42676 882.807 7.97596C881.933 8.50021 881.234 9.26161 880.71 10.2602C880.186 11.2338 879.924 12.3821 879.924 13.7052C879.924 15.0283 880.186 16.1891 880.71 17.1876C881.234 18.1612 881.933 18.9226 882.807 19.4718C883.706 19.9961 884.704 20.2582 885.803 20.2582Z" fill="#8C8C8C"/>
    <path d="M918.667 27.4104C915.846 27.4104 913.313 26.8237 911.066 25.6504C908.819 24.4771 907.059 22.8544 905.786 20.7824C904.513 18.6855 903.876 16.3264 903.876 13.7052C903.876 11.084 904.513 8.73736 905.786 6.66536C907.059 4.56839 908.819 2.93326 911.066 1.75995C913.313 0.586651 915.846 0 918.667 0C921.488 0 924.022 0.586651 926.269 1.75995C928.516 2.93326 930.275 4.56839 931.549 6.66536C932.822 8.73736 933.458 11.084 933.458 13.7052C933.458 16.3264 932.822 18.6855 931.549 20.7824C930.275 22.8544 928.516 24.4771 926.269 25.6504C924.022 26.8237 921.488 27.4104 918.667 27.4104ZM918.667 20.2582C919.766 20.2582 920.752 19.9961 921.626 19.4718C922.524 18.9226 923.236 18.1612 923.76 17.1876C924.284 16.1891 924.546 15.0283 924.546 13.7052C924.546 12.3821 924.284 11.2338 923.76 10.2602C923.236 9.26161 922.524 8.50021 921.626 7.97596C920.752 7.42676 919.766 7.15216 918.667 7.15216C917.569 7.15216 916.57 7.42676 915.672 7.97596C914.798 8.50021 914.099 9.26161 913.575 10.2602C913.05 11.2338 912.788 12.3821 912.788 13.7052C912.788 15.0283 913.05 16.1891 913.575 17.1876C914.099 18.1612 914.798 18.9226 915.672 19.4718C916.57 19.9961 917.569 20.2582 918.667 20.2582Z" fill="#8C8C8C"/>
    <path d="M961.193 26.8112L961.118 14.866L955.426 24.4521H951.532L945.84 15.2779V26.8112H937.789V0.599132H945.054L953.591 14.5664L961.904 0.599132H969.169L969.244 26.8112H961.193Z" fill="#8C8C8C"/>
    <path d="M895.035 54.7489V61.1366H874.15V36.0166H894.568V42.4043H882.475V45.3469H893.097V51.4474H882.475V54.7489H895.035Z" fill="#1F1F1F"/>
    <path d="M903.75 42.5837H896.393V36.0166H919.575V42.5837H912.219V61.1366H903.75V42.5837Z" fill="#1F1F1F"/>
    <path d="M942.66 54.7489V61.1366H921.775V36.0166H942.194V42.4043H930.101V45.3469H940.723V51.4474H930.101V54.7489H942.66Z" fill="#1F1F1F"/>
    <path d="M956.686 54.8207H954.39V61.1366H945.921V36.0166H958.014C960.335 36.0166 962.356 36.3994 964.079 37.165C965.801 37.9305 967.129 39.031 968.062 40.4664C968.995 41.9019 969.462 43.5765 969.462 45.4904C969.462 47.2847 969.055 48.8517 968.242 50.1914C967.428 51.5312 966.256 52.5958 964.725 53.3853L970 61.1366H960.957L956.686 54.8207ZM960.921 45.4904C960.921 44.5574 960.634 43.8397 960.06 43.3373C959.485 42.811 958.624 42.5478 957.476 42.5478H954.39V48.4331H957.476C958.624 48.4331 959.485 48.1819 960.06 47.6795C960.634 47.1531 960.921 46.4235 960.921 45.4904Z" fill="#1F1F1F"/>
    <path fill-rule="evenodd" clip-rule="evenodd" d="M854.248 48.6546L846.962 36.0167H840V61.1366H847.716V50.0838L850.348 54.1155L854.248 48.6546ZM862.479 50.2149L869.071 36.0166L870.072 36.0167L870.144 61.1366H862.429L862.479 50.2149Z" fill="#1F1F1F"/>
    <path fill-rule="evenodd" clip-rule="evenodd" d="M872.765 20.4266L850.876 51.2025C850.739 51.3654 850.614 51.5408 850.502 51.7284L850.429 51.8303L850.439 51.836L850.439 51.836C849.321 53.839 850.075 56.3901 852.123 57.534C854.172 58.6779 856.739 57.9814 857.858 55.9784L857.858 55.9784L857.868 55.9841L857.914 55.8733C858.022 55.6677 858.11 55.4568 858.179 55.2426L872.765 20.4266ZM851.966 52.2775C851.222 53.5719 851.669 55.2236 852.962 55.9665C854.256 56.7095 855.907 56.2624 856.651 54.968C857.394 53.6735 856.948 52.0219 855.654 51.2789C854.361 50.536 852.709 50.983 851.966 52.2775Z" fill="#8C8C8C"/>
    <path d="M0 71.5991H12.9188C15.8396 71.5991 18.4109 72.1359 20.6327 73.2093C22.8794 74.2578 24.6144 75.7681 25.8376 77.7403C27.0858 79.7124 27.7099 82.034 27.7099 84.7052C27.7099 87.3763 27.0858 89.698 25.8376 91.6701C24.6144 93.6423 22.8794 95.1651 20.6327 96.2385C18.4109 97.287 15.8396 97.8112 12.9188 97.8112H0V71.5991ZM12.5444 90.9212C14.4416 90.9212 15.9519 90.3845 17.0753 89.311C18.2236 88.2126 18.7978 86.6773 18.7978 84.7052C18.7978 82.733 18.2236 81.2102 17.0753 80.1368C15.9519 79.0384 14.4416 78.4892 12.5444 78.4892H8.83722V90.9212H12.5444Z" fill="#8C8C8C"/>
    <path d="M45.8027 98.4104C42.9818 98.4104 40.4479 97.8237 38.2012 96.6504C35.9544 95.4771 34.1945 93.8544 32.9213 91.7824C31.6482 89.6855 31.0116 87.3264 31.0116 84.7052C31.0116 82.084 31.6482 79.7374 32.9213 77.6654C34.1945 75.5684 35.9544 73.9333 38.2012 72.76C40.4479 71.5867 42.9818 71 45.8027 71C48.6236 71 51.1575 71.5867 53.4042 72.76C55.651 73.9333 57.4109 75.5684 58.6841 77.6654C59.9572 79.7374 60.5938 82.084 60.5938 84.7052C60.5938 87.3264 59.9572 89.6855 58.6841 91.7824C57.4109 93.8544 55.651 95.4771 53.4042 96.6504C51.1575 97.8237 48.6236 98.4104 45.8027 98.4104ZM45.8027 91.2582C46.9011 91.2582 47.8872 90.9961 48.7609 90.4718C49.6596 89.9226 50.3711 89.1612 50.8953 88.1876C51.4196 87.1891 51.6817 86.0283 51.6817 84.7052C51.6817 83.3821 51.4196 82.2338 50.8953 81.2602C50.3711 80.2616 49.6596 79.5002 48.7609 78.976C47.8872 78.4268 46.9011 78.1522 45.8027 78.1522C44.7043 78.1522 43.7057 78.4268 42.807 78.976C41.9333 79.5002 41.2343 80.2616 40.7101 81.2602C40.1858 82.2338 39.9237 83.3821 39.9237 84.7052C39.9237 86.0283 40.1858 87.1891 40.7101 88.1876C41.2343 89.1612 41.9333 89.9226 42.807 90.4718C43.7057 90.9961 44.7043 91.2582 45.8027 91.2582Z" fill="#8C8C8C"/>
    <path d="M78.6673 98.4104C75.8464 98.4104 73.3125 97.8237 71.0658 96.6504C68.819 95.4771 67.0591 93.8544 65.7859 91.7824C64.5128 89.6855 63.8762 87.3264 63.8762 84.7052C63.8762 82.084 64.5128 79.7374 65.7859 77.6654C67.0591 75.5684 68.819 73.9333 71.0658 72.76C73.3125 71.5867 75.8464 71 78.6673 71C81.4882 71 84.022 71.5867 86.2688 72.76C88.5155 73.9333 90.2755 75.5684 91.5486 77.6654C92.8218 79.7374 93.4584 82.084 93.4584 84.7052C93.4584 87.3264 92.8218 89.6855 91.5486 91.7824C90.2755 93.8544 88.5155 95.4771 86.2688 96.6504C84.022 97.8237 81.4882 98.4104 78.6673 98.4104ZM78.6673 91.2582C79.7657 91.2582 80.7518 90.9961 81.6255 90.4718C82.5242 89.9226 83.2357 89.1612 83.7599 88.1876C84.2842 87.1891 84.5463 86.0283 84.5463 84.7052C84.5463 83.3821 84.2842 82.2338 83.7599 81.2602C83.2357 80.2616 82.5242 79.5002 81.6255 78.976C80.7518 78.4268 79.7657 78.1522 78.6673 78.1522C77.5689 78.1522 76.5703 78.4268 75.6716 78.976C74.7979 79.5002 74.0989 80.2616 73.5746 81.2602C73.0504 82.2338 72.7883 83.3821 72.7883 84.7052C72.7883 86.0283 73.0504 87.1891 73.5746 88.1876C74.0989 89.1612 74.7979 89.9226 75.6716 90.4718C76.5703 90.9961 77.5689 91.2582 78.6673 91.2582Z" fill="#8C8C8C"/>
    <path d="M121.193 97.8112L121.118 85.866L115.426 95.4521H111.532L105.84 86.2779V97.8112H97.7892V71.5991H105.054L113.591 85.5664L121.904 71.5991H129.169L129.244 97.8112H121.193Z" fill="#8C8C8C"/>
    <path d="M55.035 125.749V132.137H34.1496V107.017H54.5685V113.404H42.475V116.347H53.0972V122.447H42.475V125.749H55.035Z" fill="#1F1F1F"/>
    <path d="M63.7499 113.584H56.3933V107.017H79.5754V113.584H72.2189V132.137H63.7499V113.584Z" fill="#1F1F1F"/>
    <path d="M102.66 125.749V132.137H81.7751V107.017H102.194V113.404H90.1005V116.347H100.723V122.447H90.1005V125.749H102.66Z" fill="#1F1F1F"/>
    <path d="M116.686 125.821H114.39V132.137H105.921V107.017H118.014C120.335 107.017 122.356 107.399 124.079 108.165C125.801 108.931 127.129 110.031 128.062 111.466C128.995 112.902 129.462 114.577 129.462 116.49C129.462 118.285 129.055 119.852 128.242 121.191C127.428 122.531 126.256 123.596 124.725 124.385L130 132.137H120.957L116.686 125.821ZM120.921 116.49C120.921 115.557 120.634 114.84 120.06 114.337C119.486 113.811 118.624 113.548 117.476 113.548H114.39V119.433H117.476C118.624 119.433 119.486 119.182 120.06 118.679C120.634 118.153 120.921 117.423 120.921 116.49Z" fill="#1F1F1F"/>
    <path fill-rule="evenodd" clip-rule="evenodd" d="M14.2484 119.655L6.962 107.017H0.000198364V132.137H7.7156V121.084L10.3478 125.115L14.2484 119.655ZM22.4788 121.215L29.0707 107.017L30.0723 107.017L30.1441 132.137H22.4287L22.4788 121.215Z" fill="#1F1F1F"/>
    <path fill-rule="evenodd" clip-rule="evenodd" d="M32.7651 91.4266L10.8756 122.203C10.7391 122.365 10.6139 122.541 10.5016 122.728L10.4291 122.83L10.4394 122.836L10.4393 122.836C9.32087 124.839 10.0748 127.39 12.1234 128.534C14.1719 129.678 16.7393 128.981 17.8578 126.978L17.8578 126.978L17.868 126.984L17.9145 126.873C18.0216 126.668 18.1095 126.457 18.1787 126.243L32.7651 91.4266ZM11.9658 123.277C11.2224 124.572 11.6685 126.224 12.9622 126.967C14.2559 127.709 15.9073 127.262 16.6507 125.968C17.394 124.674 16.9479 123.022 15.6542 122.279C14.3606 121.536 12.7092 121.983 11.9658 123.277Z" fill="#8C8C8C"/>
    <path d="M140 71.5991H152.919C155.84 71.5991 158.411 72.1359 160.633 73.2093C162.879 74.2578 164.614 75.7681 165.838 77.7403C167.086 79.7124 167.71 82.034 167.71 84.7052C167.71 87.3763 167.086 89.698 165.838 91.6701C164.614 93.6423 162.879 95.1651 160.633 96.2385C158.411 97.287 155.84 97.8112 152.919 97.8112H140V71.5991ZM152.544 90.9212C154.442 90.9212 155.952 90.3845 157.075 89.311C158.224 88.2126 158.798 86.6773 158.798 84.7052C158.798 82.733 158.224 81.2102 157.075 80.1368C155.952 79.0384 154.442 78.4892 152.544 78.4892H148.837V90.9212H152.544Z" fill="#8C8C8C"/>
    <path d="M185.803 98.4104C182.982 98.4104 180.448 97.8237 178.201 96.6504C175.954 95.4771 174.194 93.8544 172.921 91.7824C171.648 89.6855 171.012 87.3264 171.012 84.7052C171.012 82.084 171.648 79.7374 172.921 77.6654C174.194 75.5684 175.954 73.9333 178.201 72.76C180.448 71.5867 182.982 71 185.803 71C188.624 71 191.157 71.5867 193.404 72.76C195.651 73.9333 197.411 75.5684 198.684 77.6654C199.957 79.7374 200.594 82.084 200.594 84.7052C200.594 87.3264 199.957 89.6855 198.684 91.7824C197.411 93.8544 195.651 95.4771 193.404 96.6504C191.157 97.8237 188.624 98.4104 185.803 98.4104ZM185.803 91.2582C186.901 91.2582 187.887 90.9961 188.761 90.4718C189.66 89.9226 190.371 89.1612 190.895 88.1876C191.42 87.1891 191.682 86.0283 191.682 84.7052C191.682 83.3821 191.42 82.2338 190.895 81.2602C190.371 80.2616 189.66 79.5002 188.761 78.976C187.887 78.4268 186.901 78.1522 185.803 78.1522C184.704 78.1522 183.706 78.4268 182.807 78.976C181.933 79.5002 181.234 80.2616 180.71 81.2602C180.186 82.2338 179.924 83.3821 179.924 84.7052C179.924 86.0283 180.186 87.1891 180.71 88.1876C181.234 89.1612 181.933 89.9226 182.807 90.4718C183.706 90.9961 184.704 91.2582 185.803 91.2582Z" fill="#8C8C8C"/>
    <path d="M218.667 98.4104C215.846 98.4104 213.313 97.8237 211.066 96.6504C208.819 95.4771 207.059 93.8544 205.786 91.7824C204.513 89.6855 203.876 87.3264 203.876 84.7052C203.876 82.084 204.513 79.7374 205.786 77.6654C207.059 75.5684 208.819 73.9333 211.066 72.76C213.313 71.5867 215.846 71 218.667 71C221.488 71 224.022 71.5867 226.269 72.76C228.516 73.9333 230.275 75.5684 231.549 77.6654C232.822 79.7374 233.458 82.084 233.458 84.7052C233.458 87.3264 232.822 89.6855 231.549 91.7824C230.275 93.8544 228.516 95.4771 226.269 96.6504C224.022 97.8237 221.488 98.4104 218.667 98.4104ZM218.667 91.2582C219.766 91.2582 220.752 90.9961 221.626 90.4718C222.524 89.9226 223.236 89.1612 223.76 88.1876C224.284 87.1891 224.546 86.0283 224.546 84.7052C224.546 83.3821 224.284 82.2338 223.76 81.2602C223.236 80.2616 222.524 79.5002 221.626 78.976C220.752 78.4268 219.766 78.1522 218.667 78.1522C217.569 78.1522 216.57 78.4268 215.672 78.976C214.798 79.5002 214.099 80.2616 213.575 81.2602C213.05 82.2338 212.788 83.3821 212.788 84.7052C212.788 86.0283 213.05 87.1891 213.575 88.1876C214.099 89.1612 214.798 89.9226 215.672 90.4718C216.57 90.9961 217.569 91.2582 218.667 91.2582Z" fill="#8C8C8C"/>
    <path d="M261.193 97.8112L261.118 85.866L255.426 95.4521H251.532L245.84 86.2779V97.8112H237.789V71.5991H245.054L253.591 85.5664L261.904 71.5991H269.169L269.244 97.8112H261.193Z" fill="#8C8C8C"/>
    <path d="M195.035 125.749V132.137H174.15V107.017H194.568V113.404H182.475V116.347H193.097V122.447H182.475V125.749H195.035Z" fill="#1F1F1F"/>
    <path d="M203.75 113.584H196.393V107.017H219.575V113.584H212.219V132.137H203.75V113.584Z" fill="#1F1F1F"/>
    <path d="M242.66 125.749V132.137H221.775V107.017H242.194V113.404H230.101V116.347H240.723V122.447H230.101V125.749H242.66Z" fill="#1F1F1F"/>
    <path d="M256.686 125.821H254.39V132.137H245.921V107.017H258.014C260.335 107.017 262.356 107.399 264.079 108.165C265.801 108.931 267.129 110.031 268.062 111.466C268.995 112.902 269.462 114.577 269.462 116.49C269.462 118.285 269.055 119.852 268.242 121.191C267.428 122.531 266.256 123.596 264.725 124.385L270 132.137H260.957L256.686 125.821ZM260.921 116.49C260.921 115.557 260.634 114.84 260.06 114.337C259.486 113.811 258.624 113.548 257.476 113.548H254.39V119.433H257.476C258.624 119.433 259.486 119.182 260.06 118.679C260.634 118.153 260.921 117.423 260.921 116.49Z" fill="#1F1F1F"/>
    <path fill-rule="evenodd" clip-rule="evenodd" d="M154.248 119.655L146.962 107.017H140V132.137H147.716V121.084L150.348 125.115L154.248 119.655ZM162.479 121.215L169.071 107.017L170.072 107.017L170.144 132.137H162.429L162.479 121.215Z" fill="#1F1F1F"/>
    <path fill-rule="evenodd" clip-rule="evenodd" d="M172.765 91.4266L150.876 122.203C150.739 122.365 150.614 122.541 150.502 122.728L150.429 122.83L150.439 122.836L150.439 122.836C149.321 124.839 150.075 127.39 152.123 128.534C154.172 129.678 156.739 128.981 157.858 126.978L157.858 126.978L157.868 126.984L157.914 126.873C158.022 126.668 158.11 126.457 158.179 126.243L172.765 91.4266ZM151.966 123.277C151.222 124.572 151.669 126.224 152.962 126.967C154.256 127.709 155.907 127.262 156.651 125.968C157.394 124.674 156.948 123.022 155.654 122.279C154.361 121.536 152.709 121.983 151.966 123.277Z" fill="#8C8C8C"/>
    <path d="M280 71.5991H292.919C295.84 71.5991 298.411 72.1359 300.633 73.2093C302.879 74.2578 304.614 75.7681 305.838 77.7403C307.086 79.7124 307.71 82.034 307.71 84.7052C307.71 87.3763 307.086 89.698 305.838 91.6701C304.614 93.6423 302.879 95.1651 300.633 96.2385C298.411 97.287 295.84 97.8112 292.919 97.8112H280V71.5991ZM292.544 90.9212C294.442 90.9212 295.952 90.3845 297.075 89.311C298.224 88.2126 298.798 86.6773 298.798 84.7052C298.798 82.733 298.224 81.2102 297.075 80.1368C295.952 79.0384 294.442 78.4892 292.544 78.4892H288.837V90.9212H292.544Z" fill="#8C8C8C"/>
    <path d="M325.803 98.4104C322.982 98.4104 320.448 97.8237 318.201 96.6504C315.954 95.4771 314.194 93.8544 312.921 91.7824C311.648 89.6855 311.012 87.3264 311.012 84.7052C311.012 82.084 311.648 79.7374 312.921 77.6654C314.194 75.5684 315.954 73.9333 318.201 72.76C320.448 71.5867 322.982 71 325.803 71C328.624 71 331.157 71.5867 333.404 72.76C335.651 73.9333 337.411 75.5684 338.684 77.6654C339.957 79.7374 340.594 82.084 340.594 84.7052C340.594 87.3264 339.957 89.6855 338.684 91.7824C337.411 93.8544 335.651 95.4771 333.404 96.6504C331.157 97.8237 328.624 98.4104 325.803 98.4104ZM325.803 91.2582C326.901 91.2582 327.887 90.9961 328.761 90.4718C329.66 89.9226 330.371 89.1612 330.895 88.1876C331.42 87.1891 331.682 86.0283 331.682 84.7052C331.682 83.3821 331.42 82.2338 330.895 81.2602C330.371 80.2616 329.66 79.5002 328.761 78.976C327.887 78.4268 326.901 78.1522 325.803 78.1522C324.704 78.1522 323.706 78.4268 322.807 78.976C321.933 79.5002 321.234 80.2616 320.71 81.2602C320.186 82.2338 319.924 83.3821 319.924 84.7052C319.924 86.0283 320.186 87.1891 320.71 88.1876C321.234 89.1612 321.933 89.9226 322.807 90.4718C323.706 90.9961 324.704 91.2582 325.803 91.2582Z" fill="#8C8C8C"/>
    <path d="M358.667 98.4104C355.846 98.4104 353.313 97.8237 351.066 96.6504C348.819 95.4771 347.059 93.8544 345.786 91.7824C344.513 89.6855 343.876 87.3264 343.876 84.7052C343.876 82.084 344.513 79.7374 345.786 77.6654C347.059 75.5684 348.819 73.9333 351.066 72.76C353.313 71.5867 355.846 71 358.667 71C361.488 71 364.022 71.5867 366.269 72.76C368.516 73.9333 370.275 75.5684 371.549 77.6654C372.822 79.7374 373.458 82.084 373.458 84.7052C373.458 87.3264 372.822 89.6855 371.549 91.7824C370.275 93.8544 368.516 95.4771 366.269 96.6504C364.022 97.8237 361.488 98.4104 358.667 98.4104ZM358.667 91.2582C359.766 91.2582 360.752 90.9961 361.626 90.4718C362.524 89.9226 363.236 89.1612 363.76 88.1876C364.284 87.1891 364.546 86.0283 364.546 84.7052C364.546 83.3821 364.284 82.2338 363.76 81.2602C363.236 80.2616 362.524 79.5002 361.626 78.976C360.752 78.4268 359.766 78.1522 358.667 78.1522C357.569 78.1522 356.57 78.4268 355.672 78.976C354.798 79.5002 354.099 80.2616 353.575 81.2602C353.05 82.2338 352.788 83.3821 352.788 84.7052C352.788 86.0283 353.05 87.1891 353.575 88.1876C354.099 89.1612 354.798 89.9226 355.672 90.4718C356.57 90.9961 357.569 91.2582 358.667 91.2582Z" fill="#8C8C8C"/>
    <path d="M401.193 97.8112L401.118 85.866L395.426 95.4521H391.532L385.84 86.2779V97.8112H377.789V71.5991H385.054L393.591 85.5664L401.904 71.5991H409.169L409.244 97.8112H401.193Z" fill="#8C8C8C"/>
    <path d="M335.035 125.749V132.137H314.15V107.017H334.568V113.404H322.475V116.347H333.097V122.447H322.475V125.749H335.035Z" fill="#1F1F1F"/>
    <path d="M343.75 113.584H336.393V107.017H359.575V113.584H352.219V132.137H343.75V113.584Z" fill="#1F1F1F"/>
    <path d="M382.66 125.749V132.137H361.775V107.017H382.194V113.404H370.101V116.347H380.723V122.447H370.101V125.749H382.66Z" fill="#1F1F1F"/>
    <path d="M396.686 125.821H394.39V132.137H385.921V107.017H398.014C400.335 107.017 402.356 107.399 404.079 108.165C405.801 108.931 407.129 110.031 408.062 111.466C408.995 112.902 409.462 114.577 409.462 116.49C409.462 118.285 409.055 119.852 408.242 121.191C407.428 122.531 406.256 123.596 404.725 124.385L410 132.137H400.957L396.686 125.821ZM400.921 116.49C400.921 115.557 400.634 114.84 400.06 114.337C399.486 113.811 398.624 113.548 397.476 113.548H394.39V119.433H397.476C398.624 119.433 399.486 119.182 400.06 118.679C400.634 118.153 400.921 117.423 400.921 116.49Z" fill="#1F1F1F"/>
    <path fill-rule="evenodd" clip-rule="evenodd" d="M294.248 119.655L286.962 107.017H280V132.137H287.716V121.084L290.348 125.115L294.248 119.655ZM302.479 121.215L309.071 107.017L310.072 107.017L310.144 132.137H302.429L302.479 121.215Z" fill="#1F1F1F"/>
    <path fill-rule="evenodd" clip-rule="evenodd" d="M312.765 91.4266L290.876 122.203C290.739 122.365 290.614 122.541 290.502 122.728L290.429 122.83L290.439 122.836L290.439 122.836C289.321 124.839 290.075 127.39 292.123 128.534C294.172 129.678 296.739 128.981 297.858 126.978L297.858 126.978L297.868 126.984L297.914 126.873C298.022 126.668 298.11 126.457 298.179 126.243L312.765 91.4266ZM291.966 123.277C291.222 124.572 291.669 126.224 292.962 126.967C294.256 127.709 295.907 127.262 296.651 125.968C297.394 124.674 296.948 123.022 295.654 122.279C294.361 121.536 292.709 121.983 291.966 123.277Z" fill="#8C8C8C"/>
    <path d="M420 71.5991H432.919C435.84 71.5991 438.411 72.1359 440.633 73.2093C442.879 74.2578 444.614 75.7681 445.838 77.7403C447.086 79.7124 447.71 82.034 447.71 84.7052C447.71 87.3763 447.086 89.698 445.838 91.6701C444.614 93.6423 442.879 95.1651 440.633 96.2385C438.411 97.287 435.84 97.8112 432.919 97.8112H420V71.5991ZM432.544 90.9212C434.442 90.9212 435.952 90.3845 437.075 89.311C438.224 88.2126 438.798 86.6773 438.798 84.7052C438.798 82.733 438.224 81.2102 437.075 80.1368C435.952 79.0384 434.442 78.4892 432.544 78.4892H428.837V90.9212H432.544Z" fill="#8C8C8C"/>
    <path d="M465.803 98.4104C462.982 98.4104 460.448 97.8237 458.201 96.6504C455.954 95.4771 454.194 93.8544 452.921 91.7824C451.648 89.6855 451.012 87.3264 451.012 84.7052C451.012 82.084 451.648 79.7374 452.921 77.6654C454.194 75.5684 455.954 73.9333 458.201 72.76C460.448 71.5867 462.982 71 465.803 71C468.624 71 471.157 71.5867 473.404 72.76C475.651 73.9333 477.411 75.5684 478.684 77.6654C479.957 79.7374 480.594 82.084 480.594 84.7052C480.594 87.3264 479.957 89.6855 478.684 91.7824C477.411 93.8544 475.651 95.4771 473.404 96.6504C471.157 97.8237 468.624 98.4104 465.803 98.4104ZM465.803 91.2582C466.901 91.2582 467.887 90.9961 468.761 90.4718C469.66 89.9226 470.371 89.1612 470.895 88.1876C471.42 87.1891 471.682 86.0283 471.682 84.7052C471.682 83.3821 471.42 82.2338 470.895 81.2602C470.371 80.2616 469.66 79.5002 468.761 78.976C467.887 78.4268 466.901 78.1522 465.803 78.1522C464.704 78.1522 463.706 78.4268 462.807 78.976C461.933 79.5002 461.234 80.2616 460.71 81.2602C460.186 82.2338 459.924 83.3821 459.924 84.7052C459.924 86.0283 460.186 87.1891 460.71 88.1876C461.234 89.1612 461.933 89.9226 462.807 90.4718C463.706 90.9961 464.704 91.2582 465.803 91.2582Z" fill="#8C8C8C"/>
    <path d="M498.667 98.4104C495.846 98.4104 493.313 97.8237 491.066 96.6504C488.819 95.4771 487.059 93.8544 485.786 91.7824C484.513 89.6855 483.876 87.3264 483.876 84.7052C483.876 82.084 484.513 79.7374 485.786 77.6654C487.059 75.5684 488.819 73.9333 491.066 72.76C493.313 71.5867 495.846 71 498.667 71C501.488 71 504.022 71.5867 506.269 72.76C508.516 73.9333 510.275 75.5684 511.549 77.6654C512.822 79.7374 513.458 82.084 513.458 84.7052C513.458 87.3264 512.822 89.6855 511.549 91.7824C510.275 93.8544 508.516 95.4771 506.269 96.6504C504.022 97.8237 501.488 98.4104 498.667 98.4104ZM498.667 91.2582C499.766 91.2582 500.752 90.9961 501.626 90.4718C502.524 89.9226 503.236 89.1612 503.76 88.1876C504.284 87.1891 504.546 86.0283 504.546 84.7052C504.546 83.3821 504.284 82.2338 503.76 81.2602C503.236 80.2616 502.524 79.5002 501.626 78.976C500.752 78.4268 499.766 78.1522 498.667 78.1522C497.569 78.1522 496.57 78.4268 495.672 78.976C494.798 79.5002 494.099 80.2616 493.575 81.2602C493.05 82.2338 492.788 83.3821 492.788 84.7052C492.788 86.0283 493.05 87.1891 493.575 88.1876C494.099 89.1612 494.798 89.9226 495.672 90.4718C496.57 90.9961 497.569 91.2582 498.667 91.2582Z" fill="#8C8C8C"/>
    <path d="M541.193 97.8112L541.118 85.866L535.426 95.4521H531.532L525.84 86.2779V97.8112H517.789V71.5991H525.054L533.591 85.5664L541.904 71.5991H549.169L549.244 97.8112H541.193Z" fill="#8C8C8C"/>
    <path d="M475.035 125.749V132.137H454.15V107.017H474.568V113.404H462.475V116.347H473.097V122.447H462.475V125.749H475.035Z" fill="#1F1F1F"/>
    <path d="M483.75 113.584H476.393V107.017H499.575V113.584H492.219V132.137H483.75V113.584Z" fill="#1F1F1F"/>
    <path d="M522.66 125.749V132.137H501.775V107.017H522.194V113.404H510.101V116.347H520.723V122.447H510.101V125.749H522.66Z" fill="#1F1F1F"/>
    <path d="M536.686 125.821H534.39V132.137H525.921V107.017H538.014C540.335 107.017 542.356 107.399 544.079 108.165C545.801 108.931 547.129 110.031 548.062 111.466C548.995 112.902 549.462 114.577 549.462 116.49C549.462 118.285 549.055 119.852 548.242 121.191C547.428 122.531 546.256 123.596 544.725 124.385L550 132.137H540.957L536.686 125.821ZM540.921 116.49C540.921 115.557 540.634 114.84 540.06 114.337C539.486 113.811 538.624 113.548 537.476 113.548H534.39V119.433H537.476C538.624 119.433 539.486 119.182 540.06 118.679C540.634 118.153 540.921 117.423 540.921 116.49Z" fill="#1F1F1F"/>
    <path fill-rule="evenodd" clip-rule="evenodd" d="M434.248 119.655L426.962 107.017H420V132.137H427.716V121.084L430.348 125.115L434.248 119.655ZM442.479 121.215L449.071 107.017L450.072 107.017L450.144 132.137H442.429L442.479 121.215Z" fill="#1F1F1F"/>
    <path fill-rule="evenodd" clip-rule="evenodd" d="M452.765 91.4266L430.876 122.203C430.739 122.365 430.614 122.541 430.502 122.728L430.429 122.83L430.439 122.836L430.439 122.836C429.321 124.839 430.075 127.39 432.123 128.534C434.172 129.678 436.739 128.981 437.858 126.978L437.858 126.978L437.868 126.984L437.914 126.873C438.022 126.668 438.11 126.457 438.179 126.243L452.765 91.4266ZM431.966 123.277C431.222 124.572 431.669 126.224 432.962 126.967C434.256 127.709 435.907 127.262 436.651 125.968C437.394 124.674 436.948 123.022 435.654 122.279C434.361 121.536 432.709 121.983 431.966 123.277Z" fill="#8C8C8C"/>
    <path d="M560 71.5991H572.919C575.84 71.5991 578.411 72.1359 580.633 73.2093C582.879 74.2578 584.614 75.7681 585.838 77.7403C587.086 79.7124 587.71 82.034 587.71 84.7052C587.71 87.3763 587.086 89.698 585.838 91.6701C584.614 93.6423 582.879 95.1651 580.633 96.2385C578.411 97.287 575.84 97.8112 572.919 97.8112H560V71.5991ZM572.544 90.9212C574.442 90.9212 575.952 90.3845 577.075 89.311C578.224 88.2126 578.798 86.6773 578.798 84.7052C578.798 82.733 578.224 81.2102 577.075 80.1368C575.952 79.0384 574.442 78.4892 572.544 78.4892H568.837V90.9212H572.544Z" fill="#8C8C8C"/>
    <path d="M605.803 98.4104C602.982 98.4104 600.448 97.8237 598.201 96.6504C595.954 95.4771 594.194 93.8544 592.921 91.7824C591.648 89.6855 591.012 87.3264 591.012 84.7052C591.012 82.084 591.648 79.7374 592.921 77.6654C594.194 75.5684 595.954 73.9333 598.201 72.76C600.448 71.5867 602.982 71 605.803 71C608.624 71 611.157 71.5867 613.404 72.76C615.651 73.9333 617.411 75.5684 618.684 77.6654C619.957 79.7374 620.594 82.084 620.594 84.7052C620.594 87.3264 619.957 89.6855 618.684 91.7824C617.411 93.8544 615.651 95.4771 613.404 96.6504C611.157 97.8237 608.624 98.4104 605.803 98.4104ZM605.803 91.2582C606.901 91.2582 607.887 90.9961 608.761 90.4718C609.66 89.9226 610.371 89.1612 610.895 88.1876C611.42 87.1891 611.682 86.0283 611.682 84.7052C611.682 83.3821 611.42 82.2338 610.895 81.2602C610.371 80.2616 609.66 79.5002 608.761 78.976C607.887 78.4268 606.901 78.1522 605.803 78.1522C604.704 78.1522 603.706 78.4268 602.807 78.976C601.933 79.5002 601.234 80.2616 600.71 81.2602C600.186 82.2338 599.924 83.3821 599.924 84.7052C599.924 86.0283 600.186 87.1891 600.71 88.1876C601.234 89.1612 601.933 89.9226 602.807 90.4718C603.706 90.9961 604.704 91.2582 605.803 91.2582Z" fill="#8C8C8C"/>
    <path d="M638.667 98.4104C635.846 98.4104 633.313 97.8237 631.066 96.6504C628.819 95.4771 627.059 93.8544 625.786 91.7824C624.513 89.6855 623.876 87.3264 623.876 84.7052C623.876 82.084 624.513 79.7374 625.786 77.6654C627.059 75.5684 628.819 73.9333 631.066 72.76C633.313 71.5867 635.846 71 638.667 71C641.488 71 644.022 71.5867 646.269 72.76C648.516 73.9333 650.275 75.5684 651.549 77.6654C652.822 79.7374 653.458 82.084 653.458 84.7052C653.458 87.3264 652.822 89.6855 651.549 91.7824C650.275 93.8544 648.516 95.4771 646.269 96.6504C644.022 97.8237 641.488 98.4104 638.667 98.4104ZM638.667 91.2582C639.766 91.2582 640.752 90.9961 641.626 90.4718C642.524 89.9226 643.236 89.1612 643.76 88.1876C644.284 87.1891 644.546 86.0283 644.546 84.7052C644.546 83.3821 644.284 82.2338 643.76 81.2602C643.236 80.2616 642.524 79.5002 641.626 78.976C640.752 78.4268 639.766 78.1522 638.667 78.1522C637.569 78.1522 636.57 78.4268 635.672 78.976C634.798 79.5002 634.099 80.2616 633.575 81.2602C633.05 82.2338 632.788 83.3821 632.788 84.7052C632.788 86.0283 633.05 87.1891 633.575 88.1876C634.099 89.1612 634.798 89.9226 635.672 90.4718C636.57 90.9961 637.569 91.2582 638.667 91.2582Z" fill="#8C8C8C"/>
    <path d="M681.193 97.8112L681.118 85.866L675.426 95.4521H671.532L665.84 86.2779V97.8112H657.789V71.5991H665.054L673.591 85.5664L681.904 71.5991H689.169L689.244 97.8112H681.193Z" fill="#8C8C8C"/>
    <path d="M615.035 125.749V132.137H594.15V107.017H614.568V113.404H602.475V116.347H613.097V122.447H602.475V125.749H615.035Z" fill="#1F1F1F"/>
    <path d="M623.75 113.584H616.393V107.017H639.575V113.584H632.219V132.137H623.75V113.584Z" fill="#1F1F1F"/>
    <path d="M662.66 125.749V132.137H641.775V107.017H662.194V113.404H650.101V116.347H660.723V122.447H650.101V125.749H662.66Z" fill="#1F1F1F"/>
    <path d="M676.686 125.821H674.39V132.137H665.921V107.017H678.014C680.335 107.017 682.356 107.399 684.079 108.165C685.801 108.931 687.129 110.031 688.062 111.466C688.995 112.902 689.462 114.577 689.462 116.49C689.462 118.285 689.055 119.852 688.242 121.191C687.428 122.531 686.256 123.596 684.725 124.385L690 132.137H680.957L676.686 125.821ZM680.921 116.49C680.921 115.557 680.634 114.84 680.06 114.337C679.485 113.811 678.624 113.548 677.476 113.548H674.39V119.433H677.476C678.624 119.433 679.485 119.182 680.06 118.679C680.634 118.153 680.921 117.423 680.921 116.49Z" fill="#1F1F1F"/>
    <path fill-rule="evenodd" clip-rule="evenodd" d="M574.248 119.655L566.962 107.017H560V132.137H567.716V121.084L570.348 125.115L574.248 119.655ZM582.479 121.215L589.071 107.017L590.072 107.017L590.144 132.137H582.429L582.479 121.215Z" fill="#1F1F1F"/>
    <path fill-rule="evenodd" clip-rule="evenodd" d="M592.765 91.4266L570.876 122.203C570.739 122.365 570.614 122.541 570.502 122.728L570.429 122.83L570.439 122.836L570.439 122.836C569.321 124.839 570.075 127.39 572.123 128.534C574.172 129.678 576.739 128.981 577.858 126.978L577.858 126.978L577.868 126.984L577.914 126.873C578.022 126.668 578.109 126.457 578.179 126.243L592.765 91.4266ZM571.966 123.277C571.222 124.572 571.669 126.224 572.962 126.967C574.256 127.709 575.907 127.262 576.651 125.968C577.394 124.674 576.948 123.022 575.654 122.279C574.361 121.536 572.709 121.983 571.966 123.277Z" fill="#8C8C8C"/>
    <path d="M700 71.5991H712.919C715.84 71.5991 718.411 72.1359 720.633 73.2093C722.879 74.2578 724.614 75.7681 725.838 77.7403C727.086 79.7124 727.71 82.034 727.71 84.7052C727.71 87.3763 727.086 89.698 725.838 91.6701C724.614 93.6423 722.879 95.1651 720.633 96.2385C718.411 97.287 715.84 97.8112 712.919 97.8112H700V71.5991ZM712.544 90.9212C714.442 90.9212 715.952 90.3845 717.075 89.311C718.224 88.2126 718.798 86.6773 718.798 84.7052C718.798 82.733 718.224 81.2102 717.075 80.1368C715.952 79.0384 714.442 78.4892 712.544 78.4892H708.837V90.9212H712.544Z" fill="#8C8C8C"/>
    <path d="M745.803 98.4104C742.982 98.4104 740.448 97.8237 738.201 96.6504C735.954 95.4771 734.194 93.8544 732.921 91.7824C731.648 89.6855 731.012 87.3264 731.012 84.7052C731.012 82.084 731.648 79.7374 732.921 77.6654C734.194 75.5684 735.954 73.9333 738.201 72.76C740.448 71.5867 742.982 71 745.803 71C748.624 71 751.157 71.5867 753.404 72.76C755.651 73.9333 757.411 75.5684 758.684 77.6654C759.957 79.7374 760.594 82.084 760.594 84.7052C760.594 87.3264 759.957 89.6855 758.684 91.7824C757.411 93.8544 755.651 95.4771 753.404 96.6504C751.157 97.8237 748.624 98.4104 745.803 98.4104ZM745.803 91.2582C746.901 91.2582 747.887 90.9961 748.761 90.4718C749.66 89.9226 750.371 89.1612 750.895 88.1876C751.42 87.1891 751.682 86.0283 751.682 84.7052C751.682 83.3821 751.42 82.2338 750.895 81.2602C750.371 80.2616 749.66 79.5002 748.761 78.976C747.887 78.4268 746.901 78.1522 745.803 78.1522C744.704 78.1522 743.706 78.4268 742.807 78.976C741.933 79.5002 741.234 80.2616 740.71 81.2602C740.186 82.2338 739.924 83.3821 739.924 84.7052C739.924 86.0283 740.186 87.1891 740.71 88.1876C741.234 89.1612 741.933 89.9226 742.807 90.4718C743.706 90.9961 744.704 91.2582 745.803 91.2582Z" fill="#8C8C8C"/>
    <path d="M778.667 98.4104C775.846 98.4104 773.313 97.8237 771.066 96.6504C768.819 95.4771 767.059 93.8544 765.786 91.7824C764.513 89.6855 763.876 87.3264 763.876 84.7052C763.876 82.084 764.513 79.7374 765.786 77.6654C767.059 75.5684 768.819 73.9333 771.066 72.76C773.313 71.5867 775.846 71 778.667 71C781.488 71 784.022 71.5867 786.269 72.76C788.516 73.9333 790.275 75.5684 791.549 77.6654C792.822 79.7374 793.458 82.084 793.458 84.7052C793.458 87.3264 792.822 89.6855 791.549 91.7824C790.275 93.8544 788.516 95.4771 786.269 96.6504C784.022 97.8237 781.488 98.4104 778.667 98.4104ZM778.667 91.2582C779.766 91.2582 780.752 90.9961 781.626 90.4718C782.524 89.9226 783.236 89.1612 783.76 88.1876C784.284 87.1891 784.546 86.0283 784.546 84.7052C784.546 83.3821 784.284 82.2338 783.76 81.2602C783.236 80.2616 782.524 79.5002 781.626 78.976C780.752 78.4268 779.766 78.1522 778.667 78.1522C777.569 78.1522 776.57 78.4268 775.672 78.976C774.798 79.5002 774.099 80.2616 773.575 81.2602C773.05 82.2338 772.788 83.3821 772.788 84.7052C772.788 86.0283 773.05 87.1891 773.575 88.1876C774.099 89.1612 774.798 89.9226 775.672 90.4718C776.57 90.9961 777.569 91.2582 778.667 91.2582Z" fill="#8C8C8C"/>
    <path d="M821.193 97.8112L821.118 85.866L815.426 95.4521H811.532L805.84 86.2779V97.8112H797.789V71.5991H805.054L813.591 85.5664L821.904 71.5991H829.169L829.244 97.8112H821.193Z" fill="#8C8C8C"/>
    <path d="M755.035 125.749V132.137H734.15V107.017H754.568V113.404H742.475V116.347H753.097V122.447H742.475V125.749H755.035Z" fill="#1F1F1F"/>
    <path d="M763.75 113.584H756.393V107.017H779.575V113.584H772.219V132.137H763.75V113.584Z" fill="#1F1F1F"/>
    <path d="M802.66 125.749V132.137H781.775V107.017H802.194V113.404H790.101V116.347H800.723V122.447H790.101V125.749H802.66Z" fill="#1F1F1F"/>
    <path d="M816.686 125.821H814.39V132.137H805.921V107.017H818.014C820.335 107.017 822.356 107.399 824.079 108.165C825.801 108.931 827.129 110.031 828.062 111.466C828.995 112.902 829.462 114.577 829.462 116.49C829.462 118.285 829.055 119.852 828.242 121.191C827.428 122.531 826.256 123.596 824.725 124.385L830 132.137H820.957L816.686 125.821ZM820.921 116.49C820.921 115.557 820.634 114.84 820.06 114.337C819.485 113.811 818.624 113.548 817.476 113.548H814.39V119.433H817.476C818.624 119.433 819.485 119.182 820.06 118.679C820.634 118.153 820.921 117.423 820.921 116.49Z" fill="#1F1F1F"/>
    <path fill-rule="evenodd" clip-rule="evenodd" d="M714.248 119.655L706.962 107.017H700V132.137H707.716V121.084L710.348 125.115L714.248 119.655ZM722.479 121.215L729.071 107.017L730.072 107.017L730.144 132.137H722.429L722.479 121.215Z" fill="#1F1F1F"/>
    <path fill-rule="evenodd" clip-rule="evenodd" d="M732.765 91.4266L710.876 122.203C710.739 122.365 710.614 122.541 710.502 122.728L710.429 122.83L710.439 122.836L710.439 122.836C709.321 124.839 710.075 127.39 712.123 128.534C714.172 129.678 716.739 128.981 717.858 126.978L717.858 126.978L717.868 126.984L717.914 126.873C718.022 126.668 718.109 126.457 718.179 126.243L732.765 91.4266ZM711.966 123.277C711.222 124.572 711.669 126.224 712.962 126.967C714.256 127.709 715.907 127.262 716.651 125.968C717.394 124.674 716.948 123.022 715.654 122.279C714.361 121.536 712.709 121.983 711.966 123.277Z" fill="#8C8C8C"/>
    <path d="M840 71.5991H852.919C855.84 71.5991 858.411 72.1359 860.633 73.2093C862.879 74.2578 864.614 75.7681 865.838 77.7403C867.086 79.7124 867.71 82.034 867.71 84.7052C867.71 87.3763 867.086 89.698 865.838 91.6701C864.614 93.6423 862.879 95.1651 860.633 96.2385C858.411 97.287 855.84 97.8112 852.919 97.8112H840V71.5991ZM852.544 90.9212C854.442 90.9212 855.952 90.3845 857.075 89.311C858.224 88.2126 858.798 86.6773 858.798 84.7052C858.798 82.733 858.224 81.2102 857.075 80.1368C855.952 79.0384 854.442 78.4892 852.544 78.4892H848.837V90.9212H852.544Z" fill="#8C8C8C"/>
    <path d="M885.803 98.4104C882.982 98.4104 880.448 97.8237 878.201 96.6504C875.954 95.4771 874.194 93.8544 872.921 91.7824C871.648 89.6855 871.012 87.3264 871.012 84.7052C871.012 82.084 871.648 79.7374 872.921 77.6654C874.194 75.5684 875.954 73.9333 878.201 72.76C880.448 71.5867 882.982 71 885.803 71C888.624 71 891.157 71.5867 893.404 72.76C895.651 73.9333 897.411 75.5684 898.684 77.6654C899.957 79.7374 900.594 82.084 900.594 84.7052C900.594 87.3264 899.957 89.6855 898.684 91.7824C897.411 93.8544 895.651 95.4771 893.404 96.6504C891.157 97.8237 888.624 98.4104 885.803 98.4104ZM885.803 91.2582C886.901 91.2582 887.887 90.9961 888.761 90.4718C889.66 89.9226 890.371 89.1612 890.895 88.1876C891.42 87.1891 891.682 86.0283 891.682 84.7052C891.682 83.3821 891.42 82.2338 890.895 81.2602C890.371 80.2616 889.66 79.5002 888.761 78.976C887.887 78.4268 886.901 78.1522 885.803 78.1522C884.704 78.1522 883.706 78.4268 882.807 78.976C881.933 79.5002 881.234 80.2616 880.71 81.2602C880.186 82.2338 879.924 83.3821 879.924 84.7052C879.924 86.0283 880.186 87.1891 880.71 88.1876C881.234 89.1612 881.933 89.9226 882.807 90.4718C883.706 90.9961 884.704 91.2582 885.803 91.2582Z" fill="#8C8C8C"/>
    <path d="M918.667 98.4104C915.846 98.4104 913.313 97.8237 911.066 96.6504C908.819 95.4771 907.059 93.8544 905.786 91.7824C904.513 89.6855 903.876 87.3264 903.876 84.7052C903.876 82.084 904.513 79.7374 905.786 77.6654C907.059 75.5684 908.819 73.9333 911.066 72.76C913.313 71.5867 915.846 71 918.667 71C921.488 71 924.022 71.5867 926.269 72.76C928.516 73.9333 930.275 75.5684 931.549 77.6654C932.822 79.7374 933.458 82.084 933.458 84.7052C933.458 87.3264 932.822 89.6855 931.549 91.7824C930.275 93.8544 928.516 95.4771 926.269 96.6504C924.022 97.8237 921.488 98.4104 918.667 98.4104ZM918.667 91.2582C919.766 91.2582 920.752 90.9961 921.626 90.4718C922.524 89.9226 923.236 89.1612 923.76 88.1876C924.284 87.1891 924.546 86.0283 924.546 84.7052C924.546 83.3821 924.284 82.2338 923.76 81.2602C923.236 80.2616 922.524 79.5002 921.626 78.976C920.752 78.4268 919.766 78.1522 918.667 78.1522C917.569 78.1522 916.57 78.4268 915.672 78.976C914.798 79.5002 914.099 80.2616 913.575 81.2602C913.05 82.2338 912.788 83.3821 912.788 84.7052C912.788 86.0283 913.05 87.1891 913.575 88.1876C914.099 89.1612 914.798 89.9226 915.672 90.4718C916.57 90.9961 917.569 91.2582 918.667 91.2582Z" fill="#8C8C8C"/>
    <path d="M961.193 97.8112L961.118 85.866L955.426 95.4521H951.532L945.84 86.2779V97.8112H937.789V71.5991H945.054L953.591 85.5664L961.904 71.5991H969.169L969.244 97.8112H961.193Z" fill="#8C8C8C"/>
    <path d="M895.035 125.749V132.137H874.15V107.017H894.568V113.404H882.475V116.347H893.097V122.447H882.475V125.749H895.035Z" fill="#1F1F1F"/>
    <path d="M903.75 113.584H896.393V107.017H919.575V113.584H912.219V132.137H903.75V113.584Z" fill="#1F1F1F"/>
    <path d="M942.66 125.749V132.137H921.775V107.017H942.194V113.404H930.101V116.347H940.723V122.447H930.101V125.749H942.66Z" fill="#1F1F1F"/>
    <path d="M956.686 125.821H954.39V132.137H945.921V107.017H958.014C960.335 107.017 962.356 107.399 964.079 108.165C965.801 108.931 967.129 110.031 968.062 111.466C968.995 112.902 969.462 114.577 969.462 116.49C969.462 118.285 969.055 119.852 968.242 121.191C967.428 122.531 966.256 123.596 964.725 124.385L970 132.137H960.957L956.686 125.821ZM960.921 116.49C960.921 115.557 960.634 114.84 960.06 114.337C959.485 113.811 958.624 113.548 957.476 113.548H954.39V119.433H957.476C958.624 119.433 959.485 119.182 960.06 118.679C960.634 118.153 960.921 117.423 960.921 116.49Z" fill="#1F1F1F"/>
    <path fill-rule="evenodd" clip-rule="evenodd" d="M854.248 119.655L846.962 107.017H840V132.137H847.716V121.084L850.348 125.115L854.248 119.655ZM862.479 121.215L869.071 107.017L870.072 107.017L870.144 132.137H862.429L862.479 121.215Z" fill="#1F1F1F"/>
    <path fill-rule="evenodd" clip-rule="evenodd" d="M872.765 91.4266L850.876 122.203C850.739 122.365 850.614 122.541 850.502 122.728L850.429 122.83L850.439 122.836L850.439 122.836C849.321 124.839 850.075 127.39 852.123 128.534C854.172 129.678 856.739 128.981 857.858 126.978L857.858 126.978L857.868 126.984L857.914 126.873C858.022 126.668 858.11 126.457 858.179 126.243L872.765 91.4266ZM851.966 123.277C851.222 124.572 851.669 126.224 852.962 126.967C854.256 127.709 855.907 127.262 856.651 125.968C857.394 124.674 856.948 123.022 855.654 122.279C854.361 121.536 852.709 121.983 851.966 123.277Z" fill="#8C8C8C"/>
  </g>
</svg>
