<svg width="84" height="40" viewBox="0 0 84 40" fill="none" xmlns="http://www.w3.org/2000/svg">
  <path d="M0 0.791989H8.28C10.152 0.791989 11.8 1.13599 13.224 1.82399C14.664 2.49599 15.776 3.46399 16.56 4.72799C17.36 5.99199 17.76 7.47999 17.76 9.19199C17.76 10.904 17.36 12.392 16.56 13.656C15.776 14.92 14.664 15.896 13.224 16.584C11.8 17.256 10.152 17.592 8.28 17.592H0V0.791989ZM8.04 13.176C9.256 13.176 10.224 12.832 10.944 12.144C11.68 11.44 12.048 10.456 12.048 9.19199C12.048 7.92799 11.68 6.95199 10.944 6.26399C10.224 5.55999 9.256 5.20799 8.04 5.20799H5.664V13.176H8.04Z" fill="#D01120"/>
  <path d="M29.3561 17.976C27.5481 17.976 25.9241 17.6 24.4841 16.848C23.0441 16.096 21.9161 15.056 21.1001 13.728C20.2841 12.384 19.8761 10.872 19.8761 9.19199C19.8761 7.51199 20.2841 6.00799 21.1001 4.67999C21.9161 3.33599 23.0441 2.28799 24.4841 1.53599C25.9241 0.783989 27.5481 0.40799 29.3561 0.40799C31.1641 0.40799 32.7881 0.783989 34.2281 1.53599C35.6681 2.28799 36.7961 3.33599 37.6121 4.67999C38.4281 6.00799 38.8361 7.51199 38.8361 9.19199C38.8361 10.872 38.4281 12.384 37.6121 13.728C36.7961 15.056 35.6681 16.096 34.2281 16.848C32.7881 17.6 31.1641 17.976 29.3561 17.976ZM29.3561 13.392C30.0601 13.392 30.6921 13.224 31.2521 12.888C31.8281 12.536 32.2841 12.048 32.6201 11.424C32.9561 10.784 33.1241 10.04 33.1241 9.19199C33.1241 8.34399 32.9561 7.60799 32.6201 6.98399C32.2841 6.34399 31.8281 5.85599 31.2521 5.51999C30.6921 5.16799 30.0601 4.99199 29.3561 4.99199C28.6521 4.99199 28.0121 5.16799 27.4361 5.51999C26.8761 5.85599 26.4281 6.34399 26.0921 6.98399C25.7561 7.60799 25.5881 8.34399 25.5881 9.19199C25.5881 10.04 25.7561 10.784 26.0921 11.424C26.4281 12.048 26.8761 12.536 27.4361 12.888C28.0121 13.224 28.6521 13.392 29.3561 13.392Z" fill="#D01120"/>
  <path d="M50.4199 17.976C48.6119 17.976 46.9879 17.6 45.5479 16.848C44.1079 16.096 42.9799 15.056 42.1639 13.728C41.3479 12.384 40.9399 10.872 40.9399 9.19199C40.9399 7.51199 41.3479 6.00799 42.1639 4.67999C42.9799 3.33599 44.1079 2.28799 45.5479 1.53599C46.9879 0.783989 48.6119 0.40799 50.4199 0.40799C52.2279 0.40799 53.8519 0.783989 55.2919 1.53599C56.7319 2.28799 57.8599 3.33599 58.6759 4.67999C59.4919 6.00799 59.8999 7.51199 59.8999 9.19199C59.8999 10.872 59.4919 12.384 58.6759 13.728C57.8599 15.056 56.7319 16.096 55.2919 16.848C53.8519 17.6 52.2279 17.976 50.4199 17.976ZM50.4199 13.392C51.1239 13.392 51.7559 13.224 52.3159 12.888C52.8919 12.536 53.3479 12.048 53.6839 11.424C54.0199 10.784 54.1879 10.04 54.1879 9.19199C54.1879 8.34399 54.0199 7.60799 53.6839 6.98399C53.3479 6.34399 52.8919 5.85599 52.3159 5.51999C51.7559 5.16799 51.1239 4.99199 50.4199 4.99199C49.7159 4.99199 49.0759 5.16799 48.4999 5.51999C47.9399 5.85599 47.4919 6.34399 47.1559 6.98399C46.8199 7.60799 46.6519 8.34399 46.6519 9.19199C46.6519 10.04 46.8199 10.784 47.1559 11.424C47.4919 12.048 47.9399 12.536 48.4999 12.888C49.0759 13.224 49.7159 13.392 50.4199 13.392Z" fill="#D01120"/>
  <path d="M77.6756 17.592L77.6276 9.93599L73.9796 16.08H71.4836L67.8356 10.2V17.592H62.6756V0.791989H67.3316L72.8036 9.74399L78.1316 0.791989H82.7876L82.8356 17.592H77.6756Z" fill="#D01120"/>
  <path d="M35.2733 35.498V39.592H21.8873V23.492H34.9743V27.586H27.2233V29.472H34.0313V33.382H27.2233V35.498H35.2733Z" fill="#1F1F1F"/>
  <path d="M40.8589 27.701H36.1439V23.492H51.0019V27.701H46.2869V39.592H40.8589V27.701Z" fill="#1F1F1F"/>
  <path d="M65.7977 35.498V39.592H52.4117V23.492H65.4987V27.586H57.7477V29.472H64.5557V33.382H57.7477V35.498H65.7977Z" fill="#1F1F1F"/>
  <path d="M74.7873 35.544H73.3153V39.592H67.8873V23.492H75.6383C77.1257 23.492 78.4213 23.7373 79.5253 24.228C80.6293 24.7186 81.4803 25.424 82.0783 26.344C82.6763 27.264 82.9753 28.3373 82.9753 29.564C82.9753 30.714 82.7147 31.7183 82.1933 32.577C81.672 33.4356 80.9207 34.118 79.9393 34.624L83.3203 39.592H77.5243L74.7873 35.544ZM77.5013 29.564C77.5013 28.966 77.3173 28.506 76.9493 28.184C76.5813 27.8466 76.0293 27.678 75.2933 27.678H73.3153V31.45H75.2933C76.0293 31.45 76.5813 31.289 76.9493 30.967C77.3173 30.6296 77.5013 30.162 77.5013 29.564Z" fill="#1F1F1F"/>
  <path fill-rule="evenodd" clip-rule="evenodd" d="M9.13214 31.592L4.46212 23.492H0.00012207V39.592H4.94512V32.508L6.63214 35.092L9.13214 31.592ZM14.4072 32.592L18.6321 23.492L19.2741 23.492L19.3201 39.592H14.3751L14.4072 32.592Z" fill="#1F1F1F"/>
  <path fill-rule="evenodd" clip-rule="evenodd" d="M21 13.4999L6.9705 33.2249C6.88297 33.3293 6.80267 33.4418 6.7307 33.5621L6.68428 33.6273L6.69085 33.631L6.69084 33.631C5.97398 34.9148 6.45722 36.5498 7.77018 37.283C9.08314 38.0161 10.7286 37.5698 11.4455 36.286L11.4455 36.286L11.4521 36.2897L11.4819 36.2186C11.5505 36.0868 11.6068 35.9517 11.6512 35.8144L21 13.4999ZM7.66919 33.914C7.19274 34.7436 7.47866 35.8022 8.30782 36.2784C9.13697 36.7545 10.1954 36.468 10.6718 35.6383C11.1483 34.8087 10.8623 33.7501 10.0332 33.2739C9.20403 32.7978 8.14563 33.0843 7.66919 33.914Z" fill="#D01120"/>
</svg>