<svg width="15" height="15" viewBox="0 0 15 15" fill="none" xmlns="http://www.w3.org/2000/svg">
  <path d="M7.5 0C3.35787 0 0 3.35787 0 7.5C0 11.6421 3.35787 15 7.5 15C11.6421 15 15 11.6421 15 7.5C14.9956 3.35972 11.6403 0.00442593 7.5 0ZM7.5 13.9286C3.94959 13.9286 1.07142 11.0504 1.07142 7.5C1.07142 3.94959 3.94959 1.07142 7.5 1.07142C11.0504 1.07142 13.9286 3.94959 13.9286 7.5C13.9248 11.0488 11.0488 13.9248 7.5 13.9286Z" fill="#D01120"/>
  <path d="M7.5 11.7857C9.86694 11.7857 11.7857 9.86694 11.7857 7.5C11.7857 5.13307 9.86694 3.21429 7.5 3.21429C5.13307 3.21429 3.21429 5.13307 3.21429 7.5C3.21429 9.86694 5.13307 11.7857 7.5 11.7857Z" fill="#D01120"/>
</svg>
